<svg width="64" height="64" viewBox="0 0 64 64" fill="none" xmlns="http://www.w3.org/2000/svg">
<path fill-rule="evenodd" clip-rule="evenodd" d="M40.9644 48.4142C40.5764 49.1643 39.9041 49.7274 39.0981 49.9775C38.7585 50.0854 38.4136 50.1759 38.0647 50.2484C36.9803 50.48 35.8809 50.635 34.7747 50.7122C34.7511 50.7138 34.7308 50.7291 34.7226 50.7513L31.4638 60.3289L30.1623 63.9609C30.1535 63.9848 30.1305 64.0005 30.1051 64C27.3088 63.8537 24.5469 63.3143 21.9008 62.3976C21.8701 62.3866 21.8539 62.353 21.8643 62.3221L23.5614 57.6427L26.2944 49.7378C26.2992 49.7218 26.2971 49.7047 26.2887 49.6904C26.2803 49.676 26.2664 49.6658 26.2502 49.6622C24.993 49.4017 24.0091 49.1411 23.0955 48.8806L21.9684 48.5575C21.7634 48.4985 21.5568 48.438 21.3452 48.3762C20.3428 48.083 19.231 47.7578 17.6684 47.4007C14.7418 46.6605 11.777 46.0804 8.78737 45.6628L8.11843 45.5743L7.88677 45.543C7.86513 45.5408 7.84399 45.5505 7.83155 45.5683C7.81911 45.5862 7.81733 45.6094 7.8269 45.629C10.1551 50.4518 14.4515 53.9574 17.3147 56.2935C17.8157 56.7024 18.2729 57.0754 18.668 57.4134C18.7145 57.4533 18.7578 57.4975 18.8 57.5404C18.8239 57.5648 18.8474 57.5888 18.871 57.6114C18.8769 57.6916 18.8672 57.7721 18.8424 57.8485L18.6003 58.5859L18.2125 59.7713C18.0641 60.2273 17.5565 60.2924 17.1505 60.0319C8.50366 54.7376 0 47.2469 0 33.9383C0 20.1685 8.64161 8.05319 23.223 4.5228C24.8641 4.18726 26.5308 3.99201 28.205 3.93918C28.3661 3.9328 28.5252 3.97649 28.6605 4.06424C28.826 4.1657 28.9414 4.33207 28.9786 4.5228C29.0157 4.71353 28.9711 4.9111 28.8557 5.06734C28.8288 5.10498 28.8015 5.14217 28.7742 5.17947C28.7352 5.23254 28.6961 5.28583 28.6579 5.34091L28.5043 5.55456L28.27 5.87764C28.043 6.19379 27.7715 6.57806 27.4883 6.97886C26.8171 7.92901 26.0801 8.97209 25.714 9.42105C25.704 9.43222 25.6899 9.43881 25.675 9.43928C25.6114 9.44303 25.5371 9.42946 25.4541 9.41429C25.3637 9.39777 25.2629 9.37936 25.1544 9.37936C23.258 9.45505 21.3891 9.85969 19.631 10.5753C12.7282 13.5481 8.77175 18.5219 6.40572 25.7416C6.39897 25.7579 6.40048 25.7764 6.40977 25.7914C6.41906 25.8064 6.435 25.816 6.45258 25.8171L6.74931 25.8614C8.32224 26.0994 9.928 26.3554 11.5653 26.6164C11.9898 26.6841 12.4165 26.7521 12.8453 26.8202C13.7433 26.9166 14.7844 27.013 15.6798 26.8202H15.7267C16.273 26.6387 16.7969 26.3958 17.2884 26.0959C18.2246 25.4759 19.1225 24.7998 19.9772 24.0715C20.3572 23.7354 20.7347 23.3498 21.0652 23.0111C21.5858 22.4822 22.1506 21.9428 22.7181 21.4217L24.3735 19.8767C24.5548 19.7128 24.7264 19.5496 24.898 19.3863C25.0811 19.2122 25.2641 19.038 25.4589 18.8632C25.5223 18.8038 25.5861 18.7439 25.6503 18.6836C26.2116 18.1569 26.8048 17.6001 27.3981 17.0811L27.4423 17.0316L27.5022 16.9899C28.3846 16.4271 29.358 15.919 30.42 15.9685C30.6231 15.979 30.8235 16.0024 31.0265 16.0285C31.0746 16.0348 31.1222 16.043 31.17 16.0512C31.2204 16.0599 31.2711 16.0687 31.3232 16.0754C31.3782 16.0824 31.4354 16.0925 31.4912 16.1024C31.5385 16.1107 31.5848 16.1189 31.6278 16.1249C31.6967 16.1344 31.76 16.1469 31.8218 16.159C31.844 16.1633 31.866 16.1676 31.8881 16.1718H31.9323C31.9657 16.1783 31.9991 16.1849 32.0323 16.1915C32.3025 16.2447 32.5693 16.2973 32.8381 16.3437L33.0568 16.3854L34.2333 16.5938L34.6549 16.6746L35.1391 16.7762C35.907 16.9321 36.665 17.134 37.4088 17.3807C37.4383 17.3912 37.4707 17.3761 37.4817 17.3468L38.1688 15.4006L38.3094 15.0123C38.7337 13.8425 39.9831 10.4189 40.1653 10.0959C40.3891 9.71025 39.4443 10.0959 39.4443 10.0959L29.0926 14.0275C29.0774 14.0326 29.0609 14.0326 29.0457 14.0275C28.7154 13.886 28.554 13.5101 28.6787 13.1729L30.355 8.53519C30.4231 8.34716 30.5693 8.19794 30.7558 8.12614L31.9792 7.57118L38.7128 4.53844L39.5848 4.14241L48.6741 0.0440362C48.8881 -0.0365326 49.1282 -0.00527978 49.3144 0.127411L50.8606 1.23994C51.006 1.23736 51.1452 1.29937 51.2406 1.40929C51.3335 1.56713 51.3821 1.74718 51.3811 1.93038C51.3463 2.04807 51.3028 2.16302 51.251 2.2743L49.1062 8.5873L48.9318 9.09536L44.2336 22.8964C44.2254 22.9204 44.2339 22.9468 44.2544 22.9616C44.8564 23.3878 45.3546 23.9444 45.712 24.59C45.9489 25.0225 46.9875 27.297 45.6652 29.1208C45.3457 29.5343 44.9454 29.8783 44.4887 30.1318C44.4695 30.1408 44.4573 30.1601 44.4573 30.1813C44.4573 30.2025 44.4695 30.2217 44.4887 30.2308C44.7809 30.3761 45.0453 30.5719 45.2695 30.8092C45.2757 30.8166 45.2819 30.8241 45.2881 30.8318C45.3081 30.8562 45.3284 30.8811 45.3502 30.903C45.7674 31.4123 46.0198 32.0366 46.0738 32.6929C46.1675 32.9821 46.6387 35.585 44.8453 37.1769C44.4116 37.5877 43.8803 37.881 43.3018 38.0289C43.2854 38.0329 43.2717 38.0439 43.2642 38.0589C43.2566 38.074 43.2561 38.0916 43.2627 38.107C43.5375 38.6943 43.705 39.3261 43.7573 39.9725C43.8458 41.6635 43.2367 43.6384 41.1544 44.024H41.1075C41.4464 44.4244 41.6744 44.9069 41.7686 45.4231C42.004 46.5828 41.4917 47.4853 40.9745 48.3963L40.9644 48.4142ZM41.1101 43.1095C41.1981 43.0918 41.285 43.0691 41.3704 43.0418C43.0441 42.5285 43.0415 40.5744 42.953 39.9934C42.928 39.6194 42.8563 39.25 42.7395 38.8939C42.6434 38.5943 42.5132 38.3067 42.3517 38.0367C42.3433 38.0231 42.3304 38.013 42.3153 38.008C41.3079 37.7553 40.3032 37.5547 39.2959 37.3905C38.9888 37.3358 38.6816 37.2889 38.3719 37.242C38.3003 37.242 38.2411 37.231 38.1819 37.2199C38.1226 37.2088 38.0634 37.1977 37.9918 37.1977H37.8044C36.5785 37.0518 35.402 36.9085 34.1292 36.3327H34.1057C33.4474 36.3419 32.8091 36.5609 32.2837 36.958C31.8985 37.229 31.59 37.5952 31.3883 38.0211L31.3623 38.0601C31.3416 38.1315 31.3158 38.2029 31.2901 38.274C31.2576 38.3639 31.2253 38.4534 31.2035 38.5421V38.589C31.0462 39.1388 31.1146 39.7287 31.3935 40.2279C31.9141 41.0382 32.9032 41.5306 33.7049 41.8198C34.0255 41.881 34.3388 41.9762 34.6393 42.1038C34.8392 42.1495 35.0397 42.1841 35.2352 42.2178C35.4521 42.2552 35.6629 42.2916 35.8601 42.3409C35.9365 42.3687 36.0262 42.3817 36.1147 42.3945C36.192 42.4056 36.2683 42.4166 36.3338 42.4373C36.5769 42.5142 36.8371 42.5764 37.1028 42.6399C37.224 42.6689 37.3463 42.6981 37.4687 42.7291C37.584 42.755 37.695 42.7852 37.8076 42.8158L37.8435 42.8255C37.9236 42.8458 38.0063 42.8671 38.0912 42.8891C38.8038 43.073 39.6745 43.2979 40.5141 43.2606C40.5304 43.2597 40.546 43.2533 40.5583 43.2424C40.6885 43.1306 40.8087 43.0077 40.9175 42.875C41.196 42.5349 41.4336 42.1633 41.6255 41.7677C41.8142 41.354 41.9422 40.9153 42.0055 40.465C42.0895 40.0034 42.1053 39.532 42.0524 39.0658C42.2211 39.3655 42.324 39.6977 42.3543 40.0403C42.3719 40.1812 42.3806 40.323 42.3803 40.465C42.3624 40.9624 42.2511 41.4521 42.0524 41.9084C41.8885 42.2194 41.6893 42.5106 41.4589 42.776C41.353 42.8975 41.2362 43.0092 41.1101 43.1095ZM42.953 23.157C42.7908 23.1069 42.6244 23.072 42.4558 23.0528C42.4335 23.0446 42.4085 23.051 42.3929 23.0689C42.3773 23.0868 42.3744 23.1125 42.3855 23.1335C42.4043 23.2323 42.4269 23.3355 42.4501 23.4417C42.4911 23.6298 42.5343 23.8274 42.5625 24.0272C42.7251 24.9499 42.8303 25.8819 42.8775 26.8176C42.9268 27.7726 42.9181 28.7297 42.8515 29.6836C42.8498 29.7007 42.8559 29.7175 42.868 29.7296C42.88 29.7417 42.8969 29.7478 42.9139 29.7461C43.7249 29.6864 44.4728 29.286 44.9728 28.644C46.0114 27.198 45.1134 25.3143 44.9234 24.9782C44.6658 24.5158 44.3211 24.1079 43.9082 23.7771V23.8005C44.1553 24.1329 44.3575 24.4964 44.5095 24.8818C44.7067 25.3272 44.8315 25.8013 44.8791 26.2861C44.9326 26.7522 44.9177 27.2235 44.8349 27.6852C44.7679 27.4585 44.722 27.2431 44.6774 27.034C44.6268 26.7964 44.5779 26.5669 44.5017 26.3382C44.411 25.9029 44.2677 25.4803 44.0748 25.0798C43.9879 24.8046 43.8764 24.5377 43.7416 24.2825C43.7093 24.2154 43.6753 24.1621 43.6399 24.1065C43.5984 24.0414 43.555 23.9731 43.51 23.8761C43.4594 23.7668 43.3953 23.6614 43.3318 23.557C43.2908 23.4895 43.25 23.4224 43.2133 23.355L42.953 23.157ZM42.6146 31.398C42.5537 31.6881 42.4417 31.9652 42.284 32.2161C42.0297 32.5998 41.6647 32.8969 41.2377 33.0681C41.07 33.1243 40.8939 33.1516 40.7171 33.1489C40.279 33.1157 39.85 33.0064 39.4495 32.8258L38.4083 32.3047C37.5301 31.8185 36.7715 31.1419 36.188 30.3246C36.1752 30.3253 36.1626 30.3207 36.1532 30.3118C36.1439 30.3029 36.1386 30.2907 36.1386 30.2778V30.3246L34.5326 30.5174C34.3152 30.5304 34.1043 30.5966 33.9183 30.7102C33.9114 30.7116 33.9044 30.7116 33.8975 30.7102C33.5596 30.9083 33.2747 31.1854 33.0672 31.5179C33.0352 31.5636 33.0072 31.6133 32.978 31.6653C32.9739 31.6726 32.9698 31.6799 32.9657 31.6872C32.7641 32.1061 32.6238 32.5519 32.5492 33.0108C32.4915 33.3704 32.5403 33.7391 32.6897 34.0712C33.0203 34.6991 33.7283 35.0847 34.4415 35.4208C35.511 35.8865 36.6625 36.0542 37.7891 36.2182C37.9484 36.2414 38.1072 36.2646 38.2651 36.2884C38.3133 36.2884 38.3608 36.3015 38.4083 36.3145C38.4558 36.3275 38.5033 36.3405 38.5515 36.3405L39.577 36.4917C40.5921 36.6584 41.6021 36.8434 42.5886 37.1039C42.6032 37.1118 42.6208 37.1118 42.6354 37.1039C42.8992 36.9066 43.1449 36.686 43.3694 36.4448C43.4637 36.3315 43.5507 36.2122 43.6297 36.0878C43.8286 35.7915 43.9927 35.4733 44.1191 35.1394C44.2936 34.6939 44.3887 34.2213 44.4002 33.7429V33.6465C44.4149 33.1223 44.3346 32.5997 44.1633 32.1041C44.3851 32.3575 44.551 32.6549 44.65 32.9769C44.7163 33.195 44.76 33.4194 44.7802 33.6465C44.8191 34.2188 44.7384 34.7929 44.5433 35.3322C44.3473 35.8703 44.0219 36.3517 43.5959 36.734C43.5866 36.7415 43.5773 36.7491 43.5681 36.7566C43.4951 36.8161 43.4258 36.8727 43.3564 36.919C43.2277 37.0236 43.0859 37.1112 42.9347 37.1795C43.0608 37.1557 43.1852 37.1235 43.307 37.0831C43.676 36.961 44.0156 36.7631 44.3039 36.5021C45.5756 35.3711 45.4461 33.5945 45.4003 32.9654C45.3923 32.8554 45.3868 32.7805 45.3919 32.7502C45.3943 32.7444 45.3943 32.7378 45.3919 32.732C45.3196 32.4035 45.2013 32.0868 45.0405 31.7914C44.9558 31.6323 44.8527 31.4836 44.7333 31.3485C44.2121 30.8858 43.5403 30.6292 42.8436 30.6268C42.8174 30.6273 42.7949 30.6455 42.789 30.6711C42.7834 30.6935 42.7758 30.7236 42.7669 30.7589C42.7139 30.9697 42.6146 31.3645 42.6146 31.398ZM26.8228 38.0784C27.6452 38.0586 28.4545 37.8678 29.1993 37.5182C29.8043 37.2287 30.354 36.8354 30.8235 36.3562C30.8781 36.3015 30.9276 36.2493 30.977 36.192C31.3663 35.7671 31.7012 35.2954 31.974 34.7877C31.9819 34.7712 31.9819 34.752 31.974 34.7356C31.8563 34.4987 31.7773 34.2445 31.7397 33.9826C31.7138 33.8259 31.7016 33.6672 31.7033 33.5084C31.7316 32.7302 31.9429 31.9697 32.3201 31.2886C32.4739 30.9791 32.6881 30.7035 32.95 30.4783C33.0317 30.4051 33.1187 30.338 33.2103 30.2777C33.6632 29.9963 33.6893 29.3267 33.5773 28.6597C33.4867 28.1504 33.3606 27.648 33.1999 27.1563C33.1745 27.1323 33.1622 27.0951 33.1498 27.058C33.1381 27.0228 33.1264 26.9876 33.1036 26.9635C32.9848 27.0186 32.8569 27.0513 32.7262 27.0599C32.0412 27.2139 31.3314 27.2201 30.6439 27.0782C30.4841 27.048 30.326 27.0097 30.1702 26.9635C29.4389 26.7525 28.7693 26.3682 28.218 25.8432C28.1982 25.8239 28.1949 25.7933 28.2102 25.7703C28.2255 25.7473 28.2551 25.7385 28.2804 25.7494C28.9368 25.9857 29.6166 26.1508 30.3081 26.2418C30.5102 26.2674 30.7135 26.2813 30.9172 26.2835C30.9805 26.2875 31.0439 26.2875 31.1072 26.2835C31.5439 26.2809 31.9794 26.2391 32.4086 26.1584C32.4313 26.1544 32.4496 26.1376 32.4557 26.1154C32.4618 26.0931 32.4547 26.0694 32.4373 26.0542C32.1978 25.836 31.9437 25.7059 31.6848 25.5734C31.5357 25.4971 31.385 25.4199 31.2347 25.3247C31.2159 25.3144 31.1982 25.3019 31.1795 25.2886C31.1697 25.2817 31.1596 25.2745 31.1488 25.2674C30.7506 24.9521 30.3263 24.4232 30.066 23.4097C30.0611 23.3856 30.0721 23.3611 30.0933 23.3487C30.1145 23.3363 30.1412 23.3388 30.1597 23.355C30.5632 23.8057 31.0105 24.2151 31.495 24.5769C31.769 24.784 32.0608 24.9662 32.367 25.1215C32.7067 25.2777 33.0759 25.3594 33.4498 25.3612C33.6829 25.3453 33.9108 25.2852 34.1213 25.184C34.1429 25.1756 34.1573 25.155 34.1578 25.1319C34.1583 24.4504 34.3379 23.781 34.6784 23.1908C34.9686 22.6734 35.3716 22.2281 35.8575 21.8881C35.8249 21.9208 35.7935 21.9597 35.7599 22.0015C35.7452 22.0197 35.7301 22.0385 35.7143 22.0575C35.7417 22.0319 35.7677 22.0049 35.7924 21.9767C35.3479 22.5541 35.0175 23.2112 34.8189 23.9126C34.6897 24.4052 34.6483 24.9167 34.6966 25.4237C34.7151 25.6624 34.7561 25.8988 34.8189 26.1298C34.9092 26.49 35.0196 26.8449 35.1495 27.1928C35.2539 27.5692 35.3808 27.939 35.5295 28.3001C35.7713 28.9998 36.1039 29.6646 36.5186 30.2777C37.1473 31.1074 37.9946 31.7453 38.9653 32.1197C38.9863 32.1256 39.0089 32.1201 39.0249 32.1052C39.0408 32.0903 39.0479 32.0682 39.0434 32.0468C38.954 31.717 38.8853 31.382 38.8378 31.0437C38.7834 30.7084 38.7521 30.3697 38.7441 30.0301C38.7287 29.6905 38.7603 29.3503 38.8378 29.0192C38.8971 28.8496 38.9766 28.6878 39.0747 28.5372C39.3812 28.1057 39.8686 27.8387 40.3969 27.8129C40.1044 27.898 39.8425 28.0653 39.6421 28.2949C39.4394 28.5107 39.3077 28.7835 39.2647 29.0765C39.2178 29.3805 39.2178 29.6898 39.2647 29.9937C39.2695 30.3169 39.3 30.6393 39.3558 30.9577C39.4115 31.3817 39.4888 31.8026 39.5874 32.2187C39.5918 32.2435 39.6119 32.2626 39.6369 32.2656C40.1832 32.3696 40.7468 32.2137 41.1622 31.8435C41.1697 31.8375 41.1751 31.8293 41.1778 31.8201L41.5318 30.7779V30.5174C41.5318 30.3311 41.5196 30.1396 41.5073 29.9468C41.4949 29.7514 41.4823 29.5547 41.4823 29.3605C41.4823 28.6388 41.4355 27.9145 41.3886 27.1928V27.0964C41.2923 25.6061 41.1544 24.1132 40.9175 22.6671C40.8568 22.1231 40.7461 21.5859 40.5869 21.0622C40.5635 21.0882 40.5518 21.1123 40.5401 21.1364C40.5284 21.1605 40.5167 21.1846 40.4932 21.2107C40.3051 21.5057 40.021 21.7265 39.6889 21.836C39.5389 21.8961 39.3793 21.9287 39.2178 21.9324C39.0585 21.9402 38.8988 21.9244 38.7441 21.8855C38.4214 21.8442 38.1222 21.6945 37.8955 21.4608C38.1921 21.503 38.4915 21.5204 38.7909 21.5129C38.8609 21.5129 38.9315 21.5 39.0024 21.4871C39.074 21.474 39.1459 21.4608 39.2178 21.4608C39.3478 21.4531 39.475 21.4204 39.5926 21.3644C39.8494 21.3039 40.0818 21.1667 40.259 20.971C40.3187 20.9411 40.3595 20.891 40.4061 20.8337C40.4326 20.8011 40.461 20.7662 40.4958 20.7313C40.413 20.5528 40.3003 20.3898 40.1627 20.2493C39.6421 19.6709 38.8846 19.3322 38.0803 19.0925C37.7245 18.9685 37.3622 18.8642 36.9949 18.7798C36.8272 18.7395 36.6605 18.7015 36.4972 18.6643C36.207 18.5982 35.9276 18.5346 35.6727 18.4646C35.0193 18.29 34.3868 18.1337 33.7465 17.9982C33.3223 17.8992 32.8928 17.8132 32.4581 17.7376C32.3807 17.7262 32.3027 17.7145 32.2241 17.7026C31.3014 17.5639 30.3056 17.4141 29.3893 17.5917C28.4428 17.7753 27.7982 18.353 27.0874 18.9902C27.0514 19.0224 27.0153 19.0548 26.979 19.0873C26.1747 19.809 25.4173 20.5255 24.6624 21.3071C23.5796 22.4092 22.4942 23.4227 21.4088 24.4336C21.3463 24.5118 21.25 24.6238 21.1876 24.6942C21.0625 24.8632 20.9405 25.0334 20.8194 25.2024C20.5875 25.5259 20.3588 25.845 20.1178 26.1428C20.0702 26.2185 20.0256 26.2898 19.9824 26.3586C19.8533 26.5648 19.7377 26.7493 19.5972 26.9661C19.4161 27.2247 19.2576 27.4984 19.1235 27.7842C18.8838 28.3341 18.7403 28.921 18.6992 29.5195C18.6599 30.149 18.6922 30.781 18.7955 31.4032C19.0133 32.6142 19.3293 33.8053 19.7404 34.9649C19.7481 34.9916 19.7365 35.0201 19.7123 35.0338C19.6881 35.0474 19.6577 35.0426 19.6388 35.0222C18.8121 34.0089 18.1882 32.8456 17.8012 31.596C17.6127 30.8872 17.5182 30.1566 17.5201 29.4231C17.5124 29.2291 17.5281 29.0349 17.5669 28.8447C17.591 28.7455 17.6027 28.6464 17.6144 28.5472C17.6255 28.4535 17.6365 28.3599 17.658 28.2663L17.7101 27.9771C17.7316 27.9302 17.7426 27.8834 17.7537 27.8366C17.7654 27.787 17.7771 27.7374 17.8012 27.6878C17.8441 27.5074 17.9079 27.3325 17.9912 27.1668C18.0015 27.0794 18.0337 26.996 18.0849 26.9245C17.9827 26.9881 17.871 27.0607 17.758 27.1342C17.612 27.2292 17.4636 27.3257 17.3301 27.4065C17.306 27.4319 17.2813 27.4442 17.2566 27.4566C17.2331 27.4683 17.2097 27.48 17.1869 27.5029C16.6461 27.8922 16.1541 28.3454 15.7215 28.8525C15.1921 29.563 14.9112 30.4283 14.9224 31.3146C14.9244 31.7834 14.9706 32.251 15.0603 32.7112C15.1098 32.9535 15.1567 33.1932 15.2035 33.4355C15.2436 33.6816 15.3072 33.9233 15.3935 34.1572C15.025 33.775 14.7216 33.3349 14.4955 32.8544C14.2691 32.3649 14.1097 31.8469 14.0218 31.3146C13.9625 30.7511 13.9959 30.1816 14.1207 29.6289C14.1641 29.3414 14.2594 29.0642 14.4018 28.8108C14.5441 28.56 14.7014 28.3182 14.8729 28.0865L14.925 28.0396C14.1816 28.0423 13.4388 27.9935 12.7021 27.8937C11.7529 27.7448 10.8114 27.603 9.87982 27.4627C8.70894 27.2864 7.55375 27.1125 6.41874 26.9297L6.10379 26.8802C6.07459 26.8751 6.04636 26.8932 6.03872 26.9218C4.43485 32.7843 4.89437 39.0207 7.34016 44.5842C7.34824 44.6038 7.36605 44.6177 7.38701 44.6207L7.69936 44.6571C8.10541 44.704 8.51667 44.7587 8.92272 44.8187C11.944 45.2362 14.9407 45.8155 17.9001 46.5539C17.9664 46.5772 18.0332 46.5896 18.0952 46.601C18.1647 46.6138 18.228 46.6255 18.2775 46.6503C18.138 46.2271 18.0429 45.7905 17.9938 45.3476C17.9564 44.3327 18.2347 43.3313 18.7903 42.4816C18.8052 42.4577 18.8353 42.4482 18.8613 42.4592C18.8872 42.4702 18.9013 42.4985 18.8944 42.5259C18.7316 43.4305 18.7316 44.357 18.8944 45.2616C19.0248 45.8782 19.278 46.4621 19.6388 46.9786C19.647 46.9907 19.6589 46.9998 19.6727 47.0046C19.9367 47.082 20.1875 47.1523 20.4267 47.2193C21.0743 47.4009 21.6375 47.5588 22.1506 47.768L23.348 48.1041C24.259 48.3491 25.2481 48.5992 26.5235 48.8858C26.5521 48.8928 26.5813 48.8771 26.5912 48.8493L29.103 41.5749C29.1122 41.5536 29.1071 41.5288 29.0901 41.5129C29.0731 41.4971 29.048 41.4938 29.0275 41.5045C28.5428 41.7144 28.0434 41.8886 27.5334 42.0256C26.8233 42.1875 26.0959 42.261 25.3678 42.2445C24.6312 42.2318 23.8992 42.1259 23.1892 41.9292C23.9647 41.9672 24.742 41.9323 25.511 41.825C27.6636 41.5254 29.2253 40.6369 29.6131 39.3707C29.7244 39.0185 29.745 38.6439 29.673 38.2816C29.6711 38.2651 29.6615 38.2505 29.6471 38.2423C29.6327 38.234 29.6153 38.2332 29.6001 38.2399C28.6893 38.5917 27.7063 38.7151 26.7369 38.5995H26.6302C25.6089 38.475 24.6296 38.1186 23.767 37.5573C24.745 37.9173 25.7809 38.094 26.8228 38.0784ZM34.5847 47.94L35.579 48.2813C36.4223 48.5705 37.3229 48.8623 38.0595 49.0343C38.0738 49.0395 38.0895 49.0395 38.1038 49.0343C38.4542 48.7992 38.766 48.5109 39.0278 48.1797C39.1803 47.9799 39.322 47.7721 39.4521 47.557C39.6079 47.3575 39.7204 47.1277 39.7826 46.8822C39.9238 46.3662 39.8739 45.8166 39.6421 45.3346C39.9884 45.6905 40.1802 46.1691 40.1757 46.6659C40.176 46.7532 40.169 46.8404 40.1549 46.9265C40.1106 47.2146 40.0154 47.4925 39.8737 47.7472C39.8373 47.8097 39.8009 47.8723 39.7592 47.9348C39.651 48.1212 39.531 48.3004 39.4 48.4715C39.2005 48.7328 38.9606 48.9606 38.6894 49.1463C38.9334 49.1456 39.1748 49.0969 39.4 49.003H39.4156C39.7774 48.8206 40.0169 48.4819 40.298 47.9608C40.3251 47.911 40.3521 47.8617 40.3789 47.8129C40.8164 47.0131 41.1878 46.3343 41.0529 45.5977C41.002 45.3421 40.9078 45.0971 40.7743 44.8734C40.594 44.5799 40.3692 44.3162 40.108 44.0918L40.1549 44.0449C39.3046 43.9802 38.4645 43.8185 37.6509 43.5629C37.5183 43.5113 37.3858 43.4713 37.2555 43.4319L37.2318 43.4248C36.863 43.3059 36.4967 43.2386 36.1257 43.1705L36.0917 43.1642C36.0218 43.1642 35.9628 43.152 35.9035 43.1396C35.8437 43.1272 35.7836 43.1147 35.7117 43.1147C35.1911 43.0183 34.6706 42.9219 34.15 42.7786C33.9271 42.7297 33.7079 42.6653 33.494 42.5858C32.8817 42.4527 32.2418 42.557 31.7033 42.8776C31.4127 43.0381 31.168 43.2704 30.9927 43.5524C30.6642 44.0844 30.5471 44.7204 30.6647 45.3346C30.8919 46.2556 31.6266 46.9646 32.5544 47.1584H32.6013C32.8381 47.2626 33.6424 47.6039 34.5847 47.94Z" fill="white"/>
<path d="M64 33.5084C64.0104 25.072 60.7568 17.61 52.8388 12.3574C52.4405 12.0968 51.9251 12.162 51.7768 12.6179L51.3968 13.8086L51.1547 14.546C51.0818 14.7702 51.1378 15.0164 51.3004 15.1869C55.9229 20.0774 58.4943 26.5571 58.4844 33.2896C58.4844 41.4941 55.5041 47.5596 49.6346 52.3979C46.4747 55.0034 42.7812 56.6943 39.4 56.8793C38.0403 56.9523 36.8698 57.865 36.4666 59.1669L35.4931 62.3117L35.2979 62.9109C35.2321 63.1221 35.2784 63.3523 35.4206 63.5216C35.5629 63.6909 35.7815 63.7759 36.0006 63.7473C53.4582 61.9078 64 48.7164 64 33.5084Z" fill="white"/>
</svg>
