<svg xmlns="http://www.w3.org/2000/svg" xmlns:xlink="http://www.w3.org/1999/xlink" viewBox="0 0 74.92 67.37"><defs><style>.cls-1{isolation:isolate;}.cls-15,.cls-2,.cls-20{mix-blend-mode:multiply;}.cls-2{fill:url(#linear-gradient);}.cls-3{fill:#d1d3d4;}.cls-4{fill:#e6e7e8;}.cls-5{fill:#878475;}.cls-6{fill:#414042;}.cls-7{fill:gray;}.cls-8{fill:#e7ea70;}.cls-9{fill:#58595b;}.cls-10{fill:#5d5e58;}.cls-11{fill:#e9ead7;}.cls-12{fill:#7a8c84;}.cls-13{fill:#929447;}.cls-14{fill:#c49a6c;stroke:#fff;stroke-linecap:round;stroke-linejoin:round;stroke-width:0;}.cls-15{fill:url(#linear-gradient-2);}.cls-16{fill:#2a302d;}.cls-17{fill:#5d5e2d;}.cls-18{fill:#bdbf5c;}.cls-19{fill:#a7a9ac;}.cls-20{fill:url(#linear-gradient-3);}.cls-21{fill:#d0d1c0;}</style><linearGradient id="linear-gradient" x1="17.1" y1="66.86" x2="31.19" y2="43.98" gradientUnits="userSpaceOnUse"><stop offset="0" stop-color="#fff"/><stop offset="1" stop-color="#595959"/></linearGradient><linearGradient id="linear-gradient-2" x1="52.91" y1="36.41" x2="40.59" y2="41.17" xlink:href="#linear-gradient"/><linearGradient id="linear-gradient-3" x1="20.45" y1="38.93" x2="31.07" y2="38.72" xlink:href="#linear-gradient"/></defs><g class="cls-1"><g id="Layer_2" data-name="Layer 2"><g id="OBJECTS"><path class="cls-2" d="M1,33,28,61.46s5.59,6.87,9.86,5.8S62.62,52.78,62.62,52.78s1.47-.83-.91-3.19S5.16,24.62,1,33Z"/><path class="cls-3" d="M18,17.3l.16.2a1.8,1.8,0,0,0,2.35.34,13.84,13.84,0,0,1,8.76-2.42,13.86,13.86,0,0,1,8.26,3.78,1.8,1.8,0,0,0,2.37,0l.2-.17a1.79,1.79,0,0,0,0-2.69A17.72,17.72,0,0,0,29.57,11.6a17.76,17.76,0,0,0-11.2,3A1.8,1.8,0,0,0,18,17.3Z"/><path class="cls-3" d="M28.69,23.36h-.11a2.44,2.44,0,0,0-2,4h0a2.45,2.45,0,0,0,3.45.28h0A2.44,2.44,0,0,0,28.69,23.36Z"/><path class="cls-3" d="M14.32,13v0a1.82,1.82,0,0,0,2.41.3,19.87,19.87,0,0,1,13-3.71A19.9,19.9,0,0,1,42,15.31a1.79,1.79,0,0,0,2.42.08h0a1.8,1.8,0,0,0,.07-2.68,23.38,23.38,0,0,0-29.81-2.38A1.81,1.81,0,0,0,14.32,13Z"/><path class="cls-3" d="M48.71,11.72l.5-.42a1.8,1.8,0,0,0,.1-2.65A30.39,30.39,0,0,0,10.55,5.56a1.8,1.8,0,0,0-.32,2.63l.43.5A1.8,1.8,0,0,0,13.08,9a25.41,25.41,0,0,1,33.19,2.65A1.8,1.8,0,0,0,48.71,11.72Z"/><path class="cls-3" d="M21.85,21.82h0a1.81,1.81,0,0,0,2.16.46,9,9,0,0,1,9.36.74,1.8,1.8,0,0,0,2.2-.1h0a1.8,1.8,0,0,0,0-2.78,11.56,11.56,0,0,0-6.42-2.71,11.64,11.64,0,0,0-6.77,1.65A1.81,1.81,0,0,0,21.85,21.82Z"/><path class="cls-4" d="M18.88,24.06l3-1,2.29-.81a3,3,0,0,1,2.65.21c.69.42,1.38.86,2.06,1.3l.27-.16-1.84-1.15-.82-.52a3,3,0,0,0-2.52-.28l-.52.18L19.89,23C19.55,23.35,19.21,23.7,18.88,24.06Z"/><path class="cls-3" d="M44.12,54.27a1.21,1.21,0,0,0,1.38.17l9.42-5a.42.42,0,0,0,.22-.34.43.43,0,0,0-.18-.37l-1.26-.9A1.19,1.19,0,0,0,53,47.6a1.09,1.09,0,0,0-.53.13L43,52.51a.42.42,0,0,0-.22.31.43.43,0,0,0,.13.37Zm-.95-1.39a.47.47,0,0,1,.25-.36l9.14-4.63a1,1,0,0,1,1.07.07l.95.68a.46.46,0,0,1,.19.41.46.46,0,0,1-.25.38l-9.09,4.81a1,1,0,0,1-.5.13,1.06,1.06,0,0,1-.71-.28l-.9-.81A.46.46,0,0,1,43.17,52.88Z"/><path class="cls-5" d="M20.05,21.43c.75.41,1.41-.64,1.43-1.24s-.34-1.54-1.07-1.26a1.92,1.92,0,0,0-.77.91A1.39,1.39,0,0,0,20.05,21.43Zm.11-1.95c0-.11.32-.38.31-.39.1.3.18.61.25.92a.13.13,0,0,1,0,.06.24.24,0,0,1-.06.08l-.15.12.06.19a.59.59,0,0,1,.22-.14.19.19,0,0,1,0,.18.39.39,0,0,1-.18.16c0,.07,0,.14,0,.16s.11,0,.15-.07l.05.32-.2.16a.13.13,0,0,1-.07,0s-.06-.05-.07-.1l-.16-.71a.42.42,0,0,1,0-.16.24.24,0,0,1,.09-.16.29.29,0,0,0,0-.13.06.06,0,0,0-.09,0s0,.05,0,.05a0,0,0,0,1,0,0A1.53,1.53,0,0,1,20.16,19.48Z"/><path class="cls-6" d="M47.93,36l-.65-.41c-4.09,2.38-8.2,4.78-10.61,9a.1.1,0,0,1-.1,0c0,.08-.1.14-.17.09-2.67-2.33-13-11.15-15.3-13.32-.09-.08,0-.2.09-.21a.07.07,0,0,1,0-.06,15.79,15.79,0,0,1,5-5.72c.8-.59,1.63-1.13,2.48-1.64l-1.07-.68c-.3-.19-.6-.39-.91-.57a2.91,2.91,0,0,0-2.63-.16l-5.45,1.93L18,25a7.9,7.9,0,0,1-1.73,1.54A1.82,1.82,0,0,1,13.9,26l-5,1.77L4.38,29.36c-.43.12-1.13.33-1.24.84s.45.94.78,1.24l.16.15c1,1,2,1.95,3.05,2.92l5.81,5.55,6.94,6.64L26.45,53,30,56.42l28-14-2.81-1.78Z"/><path class="cls-7" d="M16.88,30.09c.4.36.48.73.25,1.09a2.45,2.45,0,0,1-1.35.84l-1.44.45a4.7,4.7,0,0,1-2.05.18A2.71,2.71,0,0,1,10.7,32l-.46-.43L6.5,32.78,5.7,32l9.91-3.13ZM15,31.29a.86.86,0,0,0,.49-.31.29.29,0,0,0-.09-.39l-.49-.46-3.17,1,.48.46a1,1,0,0,0,.58.22,1.88,1.88,0,0,0,.75-.06Z"/><path class="cls-7" d="M11.67,34.77,9.2,35.3l-.84-.79,10.82-2.27,1.11,1-9,4-.84-.8,2.09-.89Zm5.79-1.3-4.2,1,.59.56Z"/><path class="cls-7" d="M16.32,36.77,21,33.94l.89.83-3,1.68,4.15-.57.89.84-6.85.8L13,38.83l-.81-.75Z"/><path class="cls-7" d="M15.5,41.21l-.8-.76,9.92-3.13,1.16,1.09-6.38,3,7.85-1.57,1.11,1L18.44,44l-.81-.76,6.24-2-6.94,1.31-.65-.61,5.44-2.69Z"/><path class="cls-7" d="M19.16,44.63l9.92-3.12,2.3,2.15-1.51.47-1.49-1.39-2.7.85,1.09,1-1.51.47-1.08-1-2.71.86L23,46.31l-1.5.47Z"/><path class="cls-7" d="M32.84,45l-5.6,3.11L33.91,46l.8.75-9.92,3.13-.86-.81,5.24-3-6.35,2L22,47.3l9.92-3.12Z"/><path class="cls-7" d="M34.71,48.67l-.86-.8,1.51-.48,2.51,2.36-1.5.48-.85-.8-8.41,2.65-.81-.76Z"/><path class="cls-8" d="M27.41,14l-1.68-.28A22.18,22.18,0,0,0,27,15.9c.26.42.54.84.83,1.24a5.74,5.74,0,0,0,.94,1.22c.51.39,2-.77,2.48-1.09a27.83,27.83,0,0,0,2.51-1.79c-.54-.23-1.07-.46-1.62-.66a.2.2,0,0,1-.14-.25,11.51,11.51,0,0,1,7.85-7.79c.62-.19,1-.06.89-.79s-.19-1.36-.33-2-.29-1.05-.43-1.58S39.86,2,39.46,2a12.4,12.4,0,0,0-5.05,1.56h0a12.22,12.22,0,0,0-2.91,2.35,17.29,17.29,0,0,0-3.84,7.94A.2.2,0,0,1,27.41,14Z"/><path class="cls-4" d="M4.39,14.73a9.83,9.83,0,0,1-2.07-2.44A3.76,3.76,0,0,1,2,9.19a3,3,0,0,0,.27,2.39,7.86,7.86,0,0,0,1.54,2,29,29,0,0,0,3,2.64l.3-.35C4.54,14.11.56,11,3.13,7.54a3.65,3.65,0,0,1,3.52-1.4,4.76,4.76,0,0,1,1.94,1A7.88,7.88,0,0,0,11,8.81a1.37,1.37,0,0,1,.32-.16c.09,0,.26-.14.37-.07s.12.36.15.49,0,.19.06.29l.14.13a1.19,1.19,0,0,1,.56-1.07A1,1,0,0,1,13,8.23a.43.43,0,0,1,.38.08.85.85,0,0,0-.55.25,2.66,2.66,0,0,0-.37.51.53.53,0,0,0-.12.38c0,.18.35.21.6.16A1,1,0,0,0,13.12,8a27.32,27.32,0,0,0-2.93-2.2,6.32,6.32,0,0,0-4-1.47,6.44,6.44,0,0,0-5,3.23,5.1,5.1,0,0,0,.21,6.19,27.66,27.66,0,0,0,4.52,4,4.88,4.88,0,0,1,.6-1.06C5.81,16,5.09,15.38,4.39,14.73Z"/><path class="cls-4" d="M11.64,9a2,2,0,0,1-.05-.24c0-.1,0-.09-.07,0l-.23.11A.43.43,0,0,1,11.64,9Z"/><path class="cls-9" d="M32.11,58.39a7.26,7.26,0,0,0,3.46,1.93,7.07,7.07,0,0,0,5-.79l1.73-1,7.27-4.08L57.52,50,60,48.61a9.66,9.66,0,0,0,2.1-1.32c1.59-1.57-1-2.89-2.17-3.67l-1.71-1.08-28,14,.86.82Zm10.5-5.59a.62.62,0,0,1,.32-.45l9.48-4.78a1.34,1.34,0,0,1,1.39.1l1.26.9a.6.6,0,0,1,.25.52.56.56,0,0,1-.31.48l-9.42,5a1.36,1.36,0,0,1-.65.16A1.4,1.4,0,0,1,44,54.4l-1.2-1.08A.63.63,0,0,1,42.61,52.8Z"/><path class="cls-9" d="M63.31,49a8.38,8.38,0,0,1-1.46.89l-6.94,3.9-8.89,5-5,2.82a8.28,8.28,0,0,1-9.84-1.32l-3.08-3-6.12-6L14.5,44.1l-7-6.83L2.67,32.59l-1-1a1.8,1.8,0,0,1-.47-1.91s-.07.1-.1.16A1.79,1.79,0,0,0,1,31.19a4.57,4.57,0,0,0,1.1,1.22c.77.76,1.54,1.52,2.32,2.27Q8.11,38.34,11.85,42l8.9,8.66L28.3,58c.82.79,1.63,1.61,2.46,2.4.55.51,1.11,1,1.69,1.45a6.9,6.9,0,0,0,4.27,1.4,7.88,7.88,0,0,0,4.12-1l2-1.16c2.43-1.41,4.87-2.8,7.3-4.19q4.76-2.73,9.52-5.42l2.43-1.36a8.24,8.24,0,0,0,1.2-.74,2.61,2.61,0,0,0,1-2A2.83,2.83,0,0,1,63.31,49Z"/><path class="cls-10" d="M60.62,12.33a1.86,1.86,0,0,0-1,1.15A2.34,2.34,0,0,0,59.84,15a1.64,1.64,0,0,0,1.49.86,1.93,1.93,0,0,0,1.27-.48,2,2,0,0,0,.7-1.6,1.73,1.73,0,0,0-.87-1.51,2,2,0,0,0-.86-.18A2.14,2.14,0,0,0,60.62,12.33Zm1.86,1.21a.71.71,0,0,1,.37.51c.07.38-.29.61-.64.7a2.18,2.18,0,0,1-.52.07,2,2,0,0,1-1.5-.6c-.08-.09-.34-.38-.16-.66a1.14,1.14,0,0,1,.83-.35l.39,0A2,2,0,0,1,62.48,13.54Z"/><path class="cls-10" d="M60.07,16.39a2,2,0,0,0-.43,0,1.82,1.82,0,0,0-1.26.87,2.37,2.37,0,0,0-.12,1.56A1.7,1.7,0,0,0,60,20.1a2,2,0,0,0,2-1.62,1.69,1.69,0,0,0-.5-1.66A2.28,2.28,0,0,0,60.07,16.39Zm.56,2.76h0a2.14,2.14,0,0,1-1.81-1c-.06-.11-.24-.46,0-.68a.79.79,0,0,1,.55-.17,3.31,3.31,0,0,1,.34,0,2.38,2.38,0,0,1,1.49.69.68.68,0,0,1,.24.58C61.39,19,61,19.14,60.63,19.15Z"/><path class="cls-10" d="M60.56,21.12a1,1,0,0,1-.3.06,1.18,1.18,0,0,1-.59-.19c-.27-.14-.53-.29-.78-.44l-.89-.5-.45-.24-.06,0a.77.77,0,0,0-.31-.11s-.14,0-.21.16a.84.84,0,0,0-.09.42q0,.32,0,.72s0,.08,0,.15,0,.24,0,.33a.61.61,0,0,1,.32-.19h0a1,1,0,0,1,.35.22l.11.1.41.28a6.71,6.71,0,0,1,1,.71.94.94,0,0,1,.27.73,7.45,7.45,0,0,0,1.22-1.87l.08-.16a.83.83,0,0,0,.08-.18l-.09,0Z"/><path class="cls-6" d="M44.34,54a.89.89,0,0,0,1,.13l9.09-4.82A.28.28,0,0,0,54.6,49a.3.3,0,0,0-.13-.26l-.94-.67A.85.85,0,0,0,53,48a.89.89,0,0,0-.39.09L43.5,52.68a.28.28,0,0,0-.06.47Z"/><path class="cls-11" d="M60.83,18a2.31,2.31,0,0,0-.39-.22,2.54,2.54,0,0,0-1-.25h-.09c-.23,0-.39.05-.45.14a.35.35,0,0,0,0,.33,1.11,1.11,0,0,0,.3.41,2,2,0,0,0,1.39.53c.27,0,.58-.05.59-.34A.75.75,0,0,0,60.83,18Z"/><path class="cls-11" d="M60.7,13.45c-.28.05-.45.14-.49.25a.34.34,0,0,0,.08.33,1.11,1.11,0,0,0,.38.32,2.21,2.21,0,0,0,1,.25,1.33,1.33,0,0,0,.89-.28.26.26,0,0,0,0-.24c0-.21-.21-.37-.5-.5l-.44-.12a3.53,3.53,0,0,0-.56-.05A2.12,2.12,0,0,0,60.7,13.45Z"/><path class="cls-11" d="M21.38,31.29a.08.08,0,0,1,0,0c2.39,2.16,13.48,11.61,15.11,13.18h0a18.37,18.37,0,0,1,6.38-6.58c2.57-1.73,5.34-3.12,7.93-4.81A38.43,38.43,0,0,0,58.3,27a23.07,23.07,0,0,0,4.49-7.33,34.22,34.22,0,0,0,1.78-8c-3.18-1.22-6.34-2.46-9.51-3.7a76.51,76.51,0,0,1-8.4-3.54,18.78,18.78,0,0,1-2,7.67c-2.37,4.66-6.76,7.28-11.24,9.62S24,26.58,21.38,31.29ZM36,42.91C31.57,39,27,35.21,22.8,31.12c0,0,0-.07.05-.05,4.56,3.72,8.88,7.78,13.27,11.7C36.21,42.85,36.07,43,36,42.91Zm12.19-9.23c-4.35,2.55-8.57,5.09-11.64,9.19,0,.06-.15,0-.1-.06,2.35-4.11,6.78-6.63,10.75-8.92,4.27-2.48,8.82-5,11.74-9.13h0C56.34,28.83,52.24,31.3,48.17,33.68ZM38.29,22.09a7.4,7.4,0,0,1,4.15-3.27c3.26-1.18,8.24-.8,10,2.59A5.73,5.73,0,0,1,53,22.69c.7,2.36-1.27,4.58-3.14,5.7-3.36,2-8.19,1.86-10.72-1.39C38,25.55,37.4,23.81,38.29,22.09Zm22.65-1a8.18,8.18,0,0,1-1.73,2.58.07.07,0,0,1-.06,0,.1.1,0,0,1-.07,0,.08.08,0,0,1,0-.08c.17-.62-.25-.91-.66-1.19l-.2-.14-.66-.48-.11-.1a.59.59,0,0,0-.24-.17h0c-.09,0-.19.1-.27.18l-.08.08,0,0a.07.07,0,0,1-.06,0,.07.07,0,0,1,0-.07,8.18,8.18,0,0,0,.05-1.09v-.06c0-.35-.08-.78.25-1a.45.45,0,0,1,.18,0,.47.47,0,0,1,.17,0l.53.26.19.1c.5.26,1,.54,1.58.87a1.28,1.28,0,0,0,.66.25l.18,0,.1,0a.65.65,0,0,1,.2,0,.31.31,0,0,1,.13,0,.07.07,0,0,1,.05,0A.14.14,0,0,1,60.94,21.05ZM62,18.81a2.28,2.28,0,0,1-2,1.5h-.17a2,2,0,0,1-1.47-.71A2.07,2.07,0,0,1,58,18a1.78,1.78,0,0,1,.66-1.38,2.45,2.45,0,0,1,1.5-.49h0A1.88,1.88,0,0,1,62.15,18,2.24,2.24,0,0,1,62,18.81Zm1.39-5.51A2.23,2.23,0,0,1,61.94,16a2,2,0,0,1-.58.09,2,2,0,0,1-1.17-.39,2.12,2.12,0,0,1-.79-1.43,1.81,1.81,0,0,1,.33-1.51,2.46,2.46,0,0,1,1.37-.84,2,2,0,0,1,2.32,1.36ZM48.06,6a71.1,71.1,0,0,0,6.77,2.91c1.14.44,2.3.86,3.45,1.27s2.24.75,3.31,1.24c0,0,0,.07,0,.06A37.48,37.48,0,0,1,58,10.27L54.56,9c-1.15-.44-2.3-.91-3.43-1.38A17.08,17.08,0,0,1,48,6.05S48,6,48.06,6ZM28,25.61c3.66-2.52,7.86-4.14,11.46-6.76a21.28,21.28,0,0,0,8.2-13c0-.11.18-.06.16,0a20,20,0,0,1-3.24,8C41.9,17.82,38,20.22,33.93,22.43a63,63,0,0,0-5.84,3.4,23.55,23.55,0,0,0-2.91,2.35c-.91.87-1.65,1.85-2.48,2.77,0,.05-.12,0-.09-.06A17.5,17.5,0,0,1,28,25.61Z"/><path class="cls-12" d="M41.27,28.56a8.68,8.68,0,0,0,10.25-1.84,4.29,4.29,0,0,0,1-4.63c-.75-1.95-2.57-2.88-4.49-3.36-.21-.05-.41-.09-.62-.12a10,10,0,0,0-6.13,1c-1.55.82-3.12,2.28-3.16,4.16S39.73,27.64,41.27,28.56Zm.65-7.72.92.66a4.82,4.82,0,0,1,1.65-1l.38.68a4.48,4.48,0,0,0-1.6.95c-.78.72-.63,1.31-.25,1.58s1.12.18,2.34-.39c1.44-.68,2.46-.82,3.31-.21s.9,1.55,0,2.63l1,.71-.64.59-1-.69a5.26,5.26,0,0,1-2,1.14l-.4-.68a4.81,4.81,0,0,0,1.87-1.06c.71-.66.81-1.39.26-1.78s-1.24-.24-2.27.25c-1.41.69-2.49,1-3.32.38s-.79-1.55,0-2.51l-1-.69Z"/><path class="cls-8" d="M57.92,36.19c0,.37,0,1.7.4,1.94a2.73,2.73,0,0,0,1,0c.32,0,.64,0,1,0a11.64,11.64,0,0,0,6.41-2.74,14.19,14.19,0,0,0,4.84-11,.18.18,0,0,1,.18-.18,24.06,24.06,0,0,0,2.55.06c-1.66-1.76-3.35-3.5-5-5.27a44.8,44.8,0,0,1-5.65,4.43l1.74.38a.18.18,0,0,1,.11.26,5.64,5.64,0,0,1-.59,2.64,8.92,8.92,0,0,1-1.8,2.82,8.78,8.78,0,0,1-5.71,2.65C57.61,33.51,57.73,34.86,57.92,36.19Z"/><path class="cls-4" d="M63.6,49.38a6,6,0,0,1-1.27.84L59.51,51.8c-5.77,3.26-11.5,6.62-17.26,9.91-.61.35-1.21.73-1.85,1a8.73,8.73,0,0,1-4.82.62,6.56,6.56,0,0,1-3.43-1.52l-.52-.45h0l-.11-.1a.46.46,0,0,1-.07-.07c-.31-.27-.6-.55-.9-.83-1.1-1-2.17-2.12-3.26-3.18l-8.11-7.88-9-8.78-7-6.83-1.8-1.78-.31-.31a1.62,1.62,0,0,1-.27-.5,4.69,4.69,0,0,0,0,.53,3.5,3.5,0,0,0,1.34,2.27l1.81,1.81,6,6,7.79,7.76q3.84,3.81,7.69,7.59c1.66,1.64,3.34,3.26,5,4.88h0l.22.22.22.21a10,10,0,0,0,5.86,2.9,8.36,8.36,0,0,0,4.87-1c1.6-.9,3.15-1.87,4.72-2.82q3.76-2.29,7.51-4.61c2.3-1.42,4.61-2.85,6.9-4.3A12.66,12.66,0,0,0,63,50.93a4.3,4.3,0,0,0,1.25-2.5A3,3,0,0,1,63.6,49.38ZM13.82,44.79l0,0a.31.31,0,0,1-.22.09.37.37,0,0,1-.24-.1L9,40.56a.32.32,0,0,1-.11-.24.37.37,0,0,1,.1-.24.33.33,0,0,1,.47,0l4.38,4.22a.36.36,0,0,1,.1.25A.33.33,0,0,1,13.82,44.79Zm6.74,6.68,0,0a.35.35,0,0,1-.22.08.36.36,0,0,1-.24-.09l-3-2.95a.33.33,0,0,1-.1-.24.31.31,0,0,1,.1-.24.34.34,0,0,1,.47,0L20.58,51a.39.39,0,0,1,.1.25A.3.3,0,0,1,20.56,51.47Zm36,3.48-9.59,5.89a.23.23,0,0,1-.14,0,.32.32,0,0,1-.14,0,.27.27,0,0,1-.14-.25v-.27A1,1,0,0,1,47,59.5l9.57-5.61a.26.26,0,0,1,.28,0,.29.29,0,0,1,.14.25A1,1,0,0,1,56.51,55Z"/><path class="cls-13" d="M65.23,24.19l-2.07-.43a8.54,8.54,0,0,1,.19,1.2c0,.19,0,.26.17.39a1.44,1.44,0,0,0,.46.19l.8.29c.15-.55.26-1.1.45-1.64Z"/><path class="cls-13" d="M57.57,38.93l.15-.23c.06-.1.11-.23.19-.34a0,0,0,0,1,0,0c-.37-2-.59-4.06-.83-6.1a1.14,1.14,0,0,1-.11.11,1.83,1.83,0,0,0-.24.31l0,0a.83.83,0,0,0,0,.32c0,.32.11.63.16,1s.12.73.17,1.1c.17,1.09.32,2.2.49,3.29C57.55,38.6,57.55,38.79,57.57,38.93Z"/><path class="cls-13" d="M74.48,26.55c0-.39.06-.78.07-1.17,0-.2.06-.51,0-.72-.74,0-1.49,0-2.23,0a1.62,1.62,0,0,0-.44,0,7.36,7.36,0,0,1,.24,2.06C72.93,26.6,73.71,26.57,74.48,26.55Z"/><path class="cls-13" d="M71.84,25.77l-.06.58a14.82,14.82,0,0,1-4,8.48,12.45,12.45,0,0,1-9.64,3.64,2,2,0,0,1-.18.32c0,.1-.11.2-.17.3a1.17,1.17,0,0,0,0,.11.92.92,0,0,0,.29.11,9.66,9.66,0,0,0,2.08.13,10.83,10.83,0,0,0,7-2.9C69.94,33.91,72.16,29.77,71.84,25.77Z"/><path class="cls-6" d="M9.34,40.2a.15.15,0,0,0-.22,0,.13.13,0,0,0,0,.11.17.17,0,0,0,0,.12l4.35,4.24a.16.16,0,0,0,.22,0l0,0a.17.17,0,0,0,0-.12.13.13,0,0,0,0-.12Z"/><path class="cls-4" d="M1.8,31.25l.21.2,3.38,3.29,6.17,6,7.33,7.13,6.83,6.64,4.67,4.55,1,1a7.81,7.81,0,0,0,9.5,1.22l1.86-1.05,7.68-4.31,8.44-4.75,2.82-1.58a7.42,7.42,0,0,0,1.43-.88,2.64,2.64,0,0,0-.44-4.17l-1-.64-5.21-3.25-7.87-4.92-.73-.46-.41.24,5.08,3.21,6.07,3.85c.87.55,1.76,1.08,2.62,1.66a3.67,3.67,0,0,1,1.48,1.52,1.56,1.56,0,0,1-.58,1.77,11.15,11.15,0,0,1-2,1.25q-3.19,1.81-6.41,3.61L45.28,57.1,40.6,59.73a7.22,7.22,0,0,1-5.44.67A7.45,7.45,0,0,1,32,58.51q-1.57-1.48-3.13-3l-5.95-5.68L15.8,43,9.17,36.7,4.73,32.46l-.88-.85a2.43,2.43,0,0,1-.85-1c-.26-.82.72-1.21,1.33-1.38l1.25-.44L13.29,26l.44-.15L13,25.34,7,27.39,2.29,29A1.35,1.35,0,0,0,1.8,31.25Z"/><path class="cls-8" d="M16,26.33a6,6,0,0,0,1.68-1.43c.95-1,1.9-2,2.86-3l3-3.15c.75-.8,1.57-1.46,1.72-2.56V16c-.5-.75-1.06-.94-1.69-.57l-.23.15a5.9,5.9,0,0,0-.8.7L21.4,17.49c-.84.85-1.69,1.71-2.52,2.58s-1.64,1.77-2.42,2.68-2,2.06-1.86,3.4c0,.07-.11.08-.13,0-.42-1.28,1.14-2.67,1.86-3.55,1.17-1.43,2.44-2.81,3.73-4.14.69-.71,1.39-1.41,2.08-2.11a4.86,4.86,0,0,1,1.58-1.24,1.67,1.67,0,0,1,1.08,0c-.18-.16-.38-.3-.55-.43-.51-.4-1-.78-1.54-1.15-1.08-.79-2.18-1.55-3.28-2.31-.92-.63-1.85-1.26-2.79-1.86a3.79,3.79,0,0,0-.72-.45,2,2,0,0,0-1.67.33,15.16,15.16,0,0,0-2.51,2.35c-.8.79-1.6,1.59-2.38,2.39s-1.58,1.58-2.3,2.43a4.28,4.28,0,0,0-1.06,3,1.11,1.11,0,0,0,.26.44,4.42,4.42,0,0,0,.53.44c.78.62,1.58,1.23,2.37,1.83,1.75,1.33,3.58,2.61,5.23,4.08A1.59,1.59,0,0,0,16,26.33Zm4.38-7.52c.58-.25,1.07.34,1.16.94a1.67,1.67,0,0,1-1,1.81c-.69.23-1.13-.5-1.15-1.09S19.78,19,20.41,18.81Z"/><path class="cls-13" d="M27.31,13.59c.07-.3.15-.6.23-.9l-.31-.06a.74.74,0,0,0-.68.12c-.27.19-.54.4-.83.58Z"/><path class="cls-13" d="M41.17,6.67a.35.35,0,0,1,.09.07l.4.31a17.1,17.1,0,0,0-.38-2.86,3,3,0,0,0-1-2A20.49,20.49,0,0,1,41.17,6.67Z"/><path class="cls-13" d="M41.17,7,41,6.89h0a11.25,11.25,0,0,0-8.57,7.37l.18-.09a3.74,3.74,0,0,1,.52-.28,8,8,0,0,1,3.32-4.37,11.1,11.1,0,0,1,5-2.3Z"/><path class="cls-13" d="M32.77,14.39l-.28.15c.56.22,1.11.45,1.66.69.18-.17.37-.33.56-.49l-1.43-.62A5,5,0,0,1,32.77,14.39Z"/><path class="cls-6" d="M56.11,54.7v-.36l-9,5.31a.79.79,0,0,0-.39.68v.12Z"/><path class="cls-9" d="M56.74,54l-.05,0s0,0,0,0l-.36.2v.56l0,0-9.56,5.83s0,0,0,.05a.12.12,0,0,0,.1,0l9.59-5.89a.79.79,0,0,0,.37-.67C56.79,54.07,56.76,54,56.74,54Z"/><path class="cls-6" d="M17.4,48.17a.17.17,0,0,0-.12-.05.16.16,0,0,0-.11.05.17.17,0,0,0-.05.12.16.16,0,0,0,.05.11l3,3a.17.17,0,0,0,.22,0l0,0a.17.17,0,0,0,.05-.12.13.13,0,0,0,0-.12Z"/><line class="cls-14" x1="30.03" y1="56.52" x2="30.03" y2="56.52"/><path class="cls-15" d="M36.67,44.63l17.56-5.48L48,35.07S38.39,40.17,36.67,44.63Z"/><path class="cls-16" d="M64.42,46.65a4.72,4.72,0,0,0-.24-.69,3,3,0,0,0-1.25-1.68c-.9-.59-1.82-1.14-2.73-1.71l-6.65-4.15L48.2,35.07c1.06-.62,2.12-1.25,3.14-1.92,4.89-3.21,9.24-7.22,11.52-12.72a27.12,27.12,0,0,0,2-8.79.2.2,0,0,0-.07-.31c-3.14-1.28-6.32-2.43-9.48-3.65-2.89-1.1-5.71-2.42-8.62-3.45a.08.08,0,0,0-.06.14h0a18.6,18.6,0,0,1-7.29,13.3c-3,2.29-6.57,3.8-9.87,5.68-.94-.59-1.88-1.19-2.83-1.77a3.61,3.61,0,0,0-3.17-.18l-2.62.89-.42.14c1.2-1.25,2.39-2.51,3.58-3.76A6.66,6.66,0,0,0,25.36,17s0,0,0,0l0-.05a2.1,2.1,0,0,0,.15-1,.15.15,0,0,0-.07-.1v0a.81.81,0,0,0-.11-.27,5.68,5.68,0,0,0-1.74-1.62c-1.3-1-2.62-1.9-4-2.81-1.08-.74-2.16-1.49-3.27-2.17A1.91,1.91,0,0,0,14.29,9a3.15,3.15,0,0,0-.76.46,1.85,1.85,0,0,0,.29-.53c.31-.91-.7-1.37-1.32-1.85A27.34,27.34,0,0,0,9,4.65C5.91,3,2.47,4.8.87,7.63a5.21,5.21,0,0,0-.16,5.48c1.17,2,3.33,3.38,5.18,4.7a3.08,3.08,0,0,0-.16,1.28v0a.25.25,0,0,0,0,.08.5.5,0,0,0,0,.12,2.86,2.86,0,0,0,.07.28.1.1,0,0,0,0,.06,1.55,1.55,0,0,0,.32.43,27.36,27.36,0,0,0,2.16,1.7c1.43,1.1,2.86,2.21,4.3,3.29l-1,.36L3.51,28.22l-1.32.45a2.42,2.42,0,0,0-.39.21,2.3,2.3,0,0,0-.95,1.06,1.85,1.85,0,0,0-.11.42,2.46,2.46,0,0,0,0,.26A3.33,3.33,0,0,0,1,33a4.88,4.88,0,0,0,.59.69L3,35.13C4.88,37,6.76,38.91,8.64,40.8q3.84,3.86,7.7,7.69t7.93,7.82c2.08,2,4.18,4.07,6.32,6l.57.52,0,0a10.12,10.12,0,0,0,4.36,2.54,8.47,8.47,0,0,0,5.1-.31A15,15,0,0,0,42.83,64l2.68-1.63q7.55-4.63,15.06-9.31a13.65,13.65,0,0,0,2.73-2,4.55,4.55,0,0,0,1.15-4.37A.16.16,0,0,0,64.42,46.65Zm-1.13,2.71a8.24,8.24,0,0,1-1.2.74l-2.43,1.36q-4.77,2.68-9.52,5.42c-2.43,1.39-4.87,2.78-7.3,4.19l-2,1.16a7.88,7.88,0,0,1-4.12,1,6.9,6.9,0,0,1-4.27-1.4c-.58-.46-1.14-.94-1.69-1.45-.83-.79-1.64-1.61-2.46-2.4l-7.55-7.34L11.85,42Q8.1,38.34,4.37,34.68c-.78-.75-1.55-1.51-2.32-2.27A4.57,4.57,0,0,1,1,31.19a1.79,1.79,0,0,1,.12-1.36c0-.06.07-.11.1-.16a1.8,1.8,0,0,0,.47,1.91l1,1,4.82,4.68,7,6.83L22,51.35l6.12,6,3.08,3A8.28,8.28,0,0,0,41,61.63l5-2.82,8.89-5,6.94-3.9A8.38,8.38,0,0,0,63.31,49a2.83,2.83,0,0,0,1-1.7A2.61,2.61,0,0,1,63.29,49.36ZM44.66,12.07a18.78,18.78,0,0,0,2-7.67,76.51,76.51,0,0,0,8.4,3.54c3.17,1.24,6.33,2.48,9.51,3.7a34.22,34.22,0,0,1-1.78,8A23.07,23.07,0,0,1,58.3,27a38.43,38.43,0,0,1-7.53,6.15c-2.59,1.69-5.36,3.08-7.93,4.81a18.37,18.37,0,0,0-6.38,6.58h0c-1.63-1.57-12.72-11-15.11-13.18a.08.08,0,0,0,0,0c2.58-4.71,7.46-7.21,12-9.6S42.29,16.73,44.66,12.07ZM30,56.52Zm28.2-14,1.71,1.08c1.22.78,3.76,2.1,2.17,3.67A9.66,9.66,0,0,1,60,48.61L57.52,50,49.6,54.47l-7.27,4.08-1.73,1a7.07,7.07,0,0,1-5,.79,7.26,7.26,0,0,1-3.46-1.93l-1.07-1-.86-.82ZM30,56.42,26.45,53,19.88,46.7l-6.94-6.64L7.13,34.51c-1-1-2-1.94-3-2.92l-.16-.15c-.33-.3-.89-.71-.78-1.24s.81-.72,1.24-.84L8.9,27.77l5-1.77a1.82,1.82,0,0,0,2.38.51A7.9,7.9,0,0,0,18,25l.6-.63,5.45-1.93a2.91,2.91,0,0,1,2.63.16c.31.18.61.38.91.57l1.07.68c-.85.51-1.68,1.05-2.48,1.64a15.79,15.79,0,0,0-5,5.72.07.07,0,0,0,0,.06c-.1,0-.18.13-.09.21,2.28,2.17,12.63,11,15.3,13.32.07,0,.15,0,.17-.09a.1.1,0,0,0,.1,0c2.41-4.25,6.52-6.65,10.61-9l.65.41,7.32,4.64,2.81,1.78ZM23.41,21.79l.52-.18a3,3,0,0,1,2.52.28l.82.52,1.84,1.15-.27.16c-.68-.44-1.37-.88-2.06-1.3a3,3,0,0,0-2.65-.21L21.84,23l-3,1c.33-.36.67-.71,1-1.07Zm-16.16-6c-1.73-1.46-4-2.55-4.53-5s1.7-5.16,4.33-4.22A10.19,10.19,0,0,1,9.57,8.26a6.07,6.07,0,0,0,1.14.83c.43.14.54-.14.93.38.27.37.29.67.85.63A1.18,1.18,0,0,0,13,9.94c-.38.37-.73.78-1.06,1.1q-1.58,1.55-3.1,3.12C8.36,14.64,7.78,15.17,7.25,15.75Zm4-6.88.23-.11c.09,0,.06-.06.07,0a2,2,0,0,0,.05.24A.43.43,0,0,0,11.29,8.87ZM1.43,13.7a5.1,5.1,0,0,1-.21-6.19,6.44,6.44,0,0,1,5-3.23,6.32,6.32,0,0,1,4,1.47A27.32,27.32,0,0,1,13.12,8a1,1,0,0,1-.22,1.66c-.25.05-.57,0-.6-.16a.53.53,0,0,1,.12-.38,2.66,2.66,0,0,1,.37-.51.85.85,0,0,1,.55-.25A.43.43,0,0,0,13,8.23a1,1,0,0,0-.36.19A1.19,1.19,0,0,0,12,9.49l-.14-.13c0-.1,0-.21-.06-.29s0-.41-.15-.49-.28,0-.37.07a1.37,1.37,0,0,0-.32.16A7.88,7.88,0,0,1,8.59,7.15a4.76,4.76,0,0,0-1.94-1,3.65,3.65,0,0,0-3.52,1.4c-2.57,3.47,1.41,6.57,4,8.33l-.3.35a29,29,0,0,1-3-2.64,7.86,7.86,0,0,1-1.54-2A3,3,0,0,1,2,9.19a3.76,3.76,0,0,0,.3,3.1,9.83,9.83,0,0,0,2.07,2.44c.7.65,1.42,1.27,2.16,1.88A4.88,4.88,0,0,0,6,17.67,27.66,27.66,0,0,1,1.43,13.7Zm5.36,6.57a4.42,4.42,0,0,1-.53-.44A1.11,1.11,0,0,1,6,19.39a4.28,4.28,0,0,1,1.06-3c.72-.85,1.53-1.63,2.3-2.43s1.58-1.6,2.38-2.39a15.16,15.16,0,0,1,2.51-2.35,2,2,0,0,1,1.67-.33,3.79,3.79,0,0,1,.72.45c.94.6,1.87,1.23,2.79,1.86,1.1.76,2.2,1.52,3.28,2.31.52.37,1,.75,1.54,1.15.17.13.37.27.55.43a1.67,1.67,0,0,0-1.08,0,4.86,4.86,0,0,0-1.58,1.24c-.69.7-1.39,1.4-2.08,2.11-1.29,1.33-2.56,2.71-3.73,4.14-.72.88-2.28,2.27-1.86,3.55,0,.06.14,0,.13,0-.18-1.34,1.06-2.47,1.86-3.4s1.59-1.81,2.42-2.68,1.68-1.73,2.52-2.58l1.16-1.17a5.9,5.9,0,0,1,.8-.7l.23-.15c.63-.37,1.19-.18,1.69.57v.14c-.15,1.1-1,1.76-1.72,2.56l-3,3.15c-1,1-1.91,2-2.86,3A6,6,0,0,1,16,26.33a1.59,1.59,0,0,1-1.64-.15c-1.65-1.47-3.48-2.75-5.23-4.08C8.37,21.5,7.57,20.89,6.79,20.27ZM7,27.39l6-2.05.72.54-.44.15L5.58,28.76l-1.25.44c-.61.17-1.59.56-1.33,1.38a2.43,2.43,0,0,0,.85,1l.88.85L9.17,36.7,15.8,43l7.11,6.8,5.95,5.68q1.56,1.5,3.13,3a7.45,7.45,0,0,0,3.17,1.89,7.22,7.22,0,0,0,5.44-.67l4.68-2.63,8.39-4.72q3.21-1.8,6.41-3.61a11.15,11.15,0,0,0,2-1.25,1.56,1.56,0,0,0,.58-1.77,3.67,3.67,0,0,0-1.48-1.52c-.86-.58-1.75-1.11-2.62-1.66l-6.07-3.85-5.08-3.21.41-.24.73.46,7.87,4.92,5.21,3.25,1,.64a2.64,2.64,0,0,1,.44,4.17,7.42,7.42,0,0,1-1.43.88l-2.82,1.58-8.44,4.75-7.68,4.31-1.86,1.05a7.81,7.81,0,0,1-9.5-1.22l-1-1-4.67-4.55-6.83-6.64-7.33-7.13-6.17-6L2,31.45l-.21-.2A1.35,1.35,0,0,1,2.29,29ZM63,50.93a12.66,12.66,0,0,1-2.26,1.64c-2.29,1.45-4.6,2.88-6.9,4.3q-3.75,2.33-7.51,4.61c-1.57,1-3.12,1.92-4.72,2.82a8.36,8.36,0,0,1-4.87,1,10,10,0,0,1-5.86-2.9l-.22-.21L30.46,62h0c-1.68-1.62-3.36-3.24-5-4.88q-3.86-3.78-7.69-7.59L10,41.77l-6-6L2.12,33.93A3.5,3.5,0,0,1,.78,31.66a4.69,4.69,0,0,1,0-.53,1.62,1.62,0,0,0,.27.5l.31.31,1.8,1.78,7,6.83,9,8.78,8.11,7.88c1.09,1.06,2.16,2.14,3.26,3.18.3.28.59.56.9.83a.46.46,0,0,0,.07.07l.11.1h0l.52.45a6.56,6.56,0,0,0,3.43,1.52,8.73,8.73,0,0,0,4.82-.62c.64-.31,1.24-.69,1.85-1C48,58.42,53.74,55.06,59.51,51.8l2.82-1.58a6,6,0,0,0,1.27-.84,3,3,0,0,0,.67-1A4.3,4.3,0,0,1,63,50.93Z"/><path class="cls-16" d="M9.46,40.08a.33.33,0,0,0-.47,0,.37.37,0,0,0-.1.24.32.32,0,0,0,.11.24l4.34,4.24a.37.37,0,0,0,.24.1.31.31,0,0,0,.22-.09l0,0a.33.33,0,0,0,.12-.24.36.36,0,0,0-.1-.25Zm4.25,4.58,0,0a.16.16,0,0,1-.22,0L9.12,40.44a.17.17,0,0,1,0-.12.13.13,0,0,1,0-.11.15.15,0,0,1,.22,0l4.37,4.22a.13.13,0,0,1,0,.12A.17.17,0,0,1,13.71,44.66Z"/><path class="cls-16" d="M17.52,48a.34.34,0,0,0-.47,0,.31.31,0,0,0-.1.24.33.33,0,0,0,.1.24l3,2.95a.36.36,0,0,0,.24.09.35.35,0,0,0,.22-.08l0,0a.3.3,0,0,0,.12-.25.39.39,0,0,0-.1-.25Zm2.93,3.3,0,0a.17.17,0,0,1-.22,0l-3-3a.16.16,0,0,1-.05-.11.17.17,0,0,1,.05-.12.16.16,0,0,1,.11-.05.17.17,0,0,1,.12.05l3.06,2.93a.13.13,0,0,1,0,.12A.17.17,0,0,1,20.45,51.34Z"/><path class="cls-16" d="M56.83,53.88a.26.26,0,0,0-.28,0L47,59.5a1,1,0,0,0-.48.83v.27a.27.27,0,0,0,.14.25.32.32,0,0,0,.14,0,.23.23,0,0,0,.14,0L56.51,55a1,1,0,0,0,.46-.82A.29.29,0,0,0,56.83,53.88Zm-9.77,5.77,9-5.31v.36l-9.44,5.75v-.12A.79.79,0,0,1,47.06,59.65Zm9.36-4.85-9.59,5.89a.12.12,0,0,1-.1,0s0,0,0-.05l9.56-5.83,0,0v-.56l.36-.2s0,0,0,0l.05,0s0,0,0,.09A.79.79,0,0,1,56.42,54.8Z"/><path class="cls-16" d="M44,54.4a1.4,1.4,0,0,0,.93.35,1.36,1.36,0,0,0,.65-.16l9.42-5a.56.56,0,0,0,.31-.48.6.6,0,0,0-.25-.52l-1.26-.9a1.34,1.34,0,0,0-1.39-.1l-9.48,4.78a.62.62,0,0,0-.32.45.63.63,0,0,0,.19.52Zm-1.21-1.58a.42.42,0,0,1,.22-.31l9.48-4.78A1.09,1.09,0,0,1,53,47.6a1.19,1.19,0,0,1,.68.21l1.26.9a.43.43,0,0,1,.18.37.42.42,0,0,1-.22.34l-9.42,5a1.21,1.21,0,0,1-1.38-.17l-1.2-1.08A.43.43,0,0,1,42.79,52.82Z"/><path class="cls-16" d="M44.22,54.09a1.06,1.06,0,0,0,.71.28,1,1,0,0,0,.5-.13l9.09-4.81a.46.46,0,0,0,.25-.38.46.46,0,0,0-.19-.41L53.63,48a1,1,0,0,0-1.07-.07l-9.14,4.63a.47.47,0,0,0-.25.36.46.46,0,0,0,.15.4Zm-.88-1.19a.29.29,0,0,1,.16-.22L52.64,48A.89.89,0,0,1,53,48a.85.85,0,0,1,.5.16l.94.67a.3.3,0,0,1,.13.26.28.28,0,0,1-.16.23l-9.09,4.82a.89.89,0,0,1-1-.13l-.9-.81A.29.29,0,0,1,43.34,52.9Z"/><path class="cls-16" d="M49.88,28.39c1.87-1.12,3.84-3.34,3.14-5.7a5.73,5.73,0,0,0-.54-1.28c-1.8-3.39-6.78-3.77-10-2.59a7.4,7.4,0,0,0-4.15,3.27c-.89,1.72-.25,3.46.87,4.91C41.69,30.25,46.52,30.42,49.88,28.39Zm-8.61-8.74a10,10,0,0,1,6.13-1c.21,0,.41.07.62.12,1.92.48,3.74,1.41,4.49,3.36a4.29,4.29,0,0,1-1,4.63,8.68,8.68,0,0,1-10.25,1.84c-1.54-.92-3.2-2.87-3.16-4.75S39.72,20.47,41.27,19.65Z"/><path class="cls-16" d="M60.2,16.17h0a2.45,2.45,0,0,0-1.5.49A1.78,1.78,0,0,0,58,18a2.07,2.07,0,0,0,.43,1.57,2,2,0,0,0,1.47.71h.17a2.28,2.28,0,0,0,2-1.5,2.24,2.24,0,0,0,.12-.79A1.88,1.88,0,0,0,60.2,16.17Zm1.71,2.31a2,2,0,0,1-2,1.62,1.7,1.7,0,0,1-1.69-1.24,2.37,2.37,0,0,1,.12-1.56,1.82,1.82,0,0,1,1.26-.87,2,2,0,0,1,.43,0,2.28,2.28,0,0,1,1.34.43A1.69,1.69,0,0,1,61.91,18.48Z"/><path class="cls-16" d="M59.68,17.34a3.31,3.31,0,0,0-.34,0,.79.79,0,0,0-.55.17c-.24.22-.06.57,0,.68a2.14,2.14,0,0,0,1.81,1h0c.37,0,.76-.15.78-.54a.68.68,0,0,0-.24-.58A2.38,2.38,0,0,0,59.68,17.34Zm.94,1.59a2,2,0,0,1-1.39-.53,1.11,1.11,0,0,1-.3-.41.35.35,0,0,1,0-.33c.06-.09.22-.14.45-.14h.09a2.54,2.54,0,0,1,1,.25,2.31,2.31,0,0,1,.39.22.75.75,0,0,1,.38.59C61.2,18.88,60.89,18.93,60.62,18.93Z"/><path class="cls-16" d="M61.1,11.94a2.46,2.46,0,0,0-1.37.84,1.81,1.81,0,0,0-.33,1.51,2.12,2.12,0,0,0,.79,1.43,2,2,0,0,0,1.17.39,2,2,0,0,0,.58-.09,2.23,2.23,0,0,0,1.48-2.72,2,2,0,0,0-2.32-1.36Zm2.2,1.87a2,2,0,0,1-.7,1.6,1.93,1.93,0,0,1-1.27.48A1.64,1.64,0,0,1,59.84,15a2.34,2.34,0,0,1-.25-1.55,1.86,1.86,0,0,1,1-1.15,2.14,2.14,0,0,1,1-.21,2,2,0,0,1,.86.18A1.73,1.73,0,0,1,63.3,13.81Z"/><path class="cls-16" d="M60.86,13.21a1.14,1.14,0,0,0-.83.35c-.18.28.08.57.16.66a2,2,0,0,0,1.5.6,2.18,2.18,0,0,0,.52-.07c.35-.09.71-.32.64-.7a.71.71,0,0,0-.37-.51,2,2,0,0,0-1.23-.35Zm1.28.37c.29.13.46.29.5.5a.26.26,0,0,1,0,.24,1.33,1.33,0,0,1-.89.28,2.21,2.21,0,0,1-1-.25,1.11,1.11,0,0,1-.38-.32.34.34,0,0,1-.08-.33c0-.11.21-.2.49-.25a2.12,2.12,0,0,1,.44,0,3.53,3.53,0,0,1,.56.05Z"/><path class="cls-16" d="M60.9,20.9a.31.31,0,0,0-.13,0,.65.65,0,0,0-.2,0l-.1,0-.18,0a1.28,1.28,0,0,1-.66-.25c-.57-.33-1.08-.61-1.58-.87l-.19-.1-.53-.26a.47.47,0,0,0-.17,0,.45.45,0,0,0-.18,0c-.33.21-.28.64-.25,1v.06a8.18,8.18,0,0,1-.05,1.09.07.07,0,0,0,0,.07.07.07,0,0,0,.06,0l0,0,.08-.08c.08-.08.18-.18.27-.18h0a.59.59,0,0,1,.24.17l.11.1.66.48.2.14c.41.28.83.57.66,1.19a.08.08,0,0,0,0,.08.1.1,0,0,0,.07,0,.07.07,0,0,0,.06,0,8.18,8.18,0,0,0,1.73-2.58.14.14,0,0,0,0-.11A.07.07,0,0,0,60.9,20.9Zm-.3.37-.08.16A7.45,7.45,0,0,1,59.3,23.3a.94.94,0,0,0-.27-.73,6.71,6.71,0,0,0-1-.71l-.41-.28-.11-.1a1,1,0,0,0-.35-.22h0a.61.61,0,0,0-.32.19c0-.09,0-.25,0-.33s0-.12,0-.15q0-.41,0-.72a.84.84,0,0,1,.09-.42c.07-.14.16-.16.21-.16a.77.77,0,0,1,.31.11l.06,0,.45.24.89.5c.25.15.51.3.78.44a1.18,1.18,0,0,0,.59.19,1,1,0,0,0,.3-.06h0l.09,0A.83.83,0,0,1,60.6,21.27Z"/><path class="cls-16" d="M42.26,24.62c.83.59,1.91.31,3.32-.38,1-.49,1.75-.62,2.27-.25s.45,1.12-.26,1.78a4.81,4.81,0,0,1-1.87,1.06l.4.68a5.26,5.26,0,0,0,2-1.14l1,.69.64-.59-1-.71c.88-1.08.73-2.1,0-2.63s-1.87-.47-3.31.21c-1.22.57-1.85.74-2.34.39s-.53-.86.25-1.58a4.48,4.48,0,0,1,1.6-.95l-.38-.68a4.82,4.82,0,0,0-1.65,1l-.92-.66-.63.58,1,.69C41.47,23.07,41.47,24.05,42.26,24.62Z"/><path class="cls-16" d="M58.92,24.76c-2.92,4.13-7.47,6.65-11.74,9.13-4,2.29-8.4,4.81-10.75,8.92,0,.07.06.12.1.06,3.07-4.1,7.29-6.64,11.64-9.19,4.07-2.38,8.17-4.85,10.76-8.91Z"/><path class="cls-16" d="M22.7,31c.83-.92,1.57-1.9,2.48-2.77a23.55,23.55,0,0,1,2.91-2.35,63,63,0,0,1,5.84-3.4c4.09-2.21,8-4.61,10.61-8.54a20,20,0,0,0,3.24-8c0-.11-.14-.16-.16,0a21.28,21.28,0,0,1-8.2,13c-3.6,2.62-7.8,4.24-11.46,6.76a17.5,17.5,0,0,0-5.35,5.28C22.58,30.94,22.66,31,22.7,31Z"/><path class="cls-16" d="M22.85,31.07s-.08,0-.05.05C27,35.21,31.57,39,36,42.91c.09.08.23-.06.14-.14C31.73,38.85,27.41,34.79,22.85,31.07Z"/><path class="cls-16" d="M51.13,7.58c1.13.47,2.28.94,3.43,1.38L58,10.27a37.48,37.48,0,0,0,3.56,1.24s.07,0,0-.06c-1.07-.49-2.2-.84-3.31-1.24S56,9.38,54.83,8.94A71.1,71.1,0,0,1,48.06,6s0,0,0,0A17.08,17.08,0,0,0,51.13,7.58Z"/><path class="cls-17" d="M28.72,19A.2.2,0,0,0,29,19a29.94,29.94,0,0,0,5.28-3.41.17.17,0,0,0,.06-.16c.27-.19.52-.38.78-.58.08-.07.12-.22,0-.27a5.71,5.71,0,0,1-1.39-.63c-.38-.47.14-1.26.4-1.66a9.91,9.91,0,0,1,2-2.08,11.13,11.13,0,0,1,5.66-2.71.15.15,0,0,0,.13-.11.2.2,0,0,0,0-.08,13.53,13.53,0,0,0-.49-3.8,2.31,2.31,0,0,0-1.33-1.75.19.19,0,0,0-.18-.14,13.07,13.07,0,0,0-5.71,1.64.15.15,0,0,0-.09.1,15.47,15.47,0,0,0-6.52,9.11,1.32,1.32,0,0,0-1-.08,5,5,0,0,0-.66.47,4.71,4.71,0,0,0-.56.44.2.2,0,0,0-.2.29A25.11,25.11,0,0,0,28.72,19Zm6-4.21c-.19.16-.38.32-.56.49-.55-.24-1.1-.47-1.66-.69l.28-.15a5,5,0,0,0,.51-.27Zm-1.55-.84a3.74,3.74,0,0,0-.52.28l-.18.09A11.25,11.25,0,0,1,41,6.9h0l.13.1.29.24a11.1,11.1,0,0,0-5,2.3A8,8,0,0,0,33.16,13.9Zm8.12-9.71a17.1,17.1,0,0,1,.38,2.86l-.4-.31a.35.35,0,0,0-.09-.07,20.49,20.49,0,0,0-.88-4.46A3,3,0,0,1,41.28,4.19ZM34.4,3.57h0A12.4,12.4,0,0,1,39.46,2c.4,0,.36,0,.48.38s.31,1,.43,1.58.24,1.34.33,2-.27.6-.89.79A11.51,11.51,0,0,0,32,14.57a.2.2,0,0,0,.14.25c.55.2,1.08.43,1.62.66a27.83,27.83,0,0,1-2.51,1.79c-.5.32-2,1.48-2.48,1.09a5.74,5.74,0,0,1-.94-1.22c-.29-.4-.57-.82-.83-1.24a22.18,22.18,0,0,1-1.23-2.18l1.68.28a.2.2,0,0,0,.24-.14,17.29,17.29,0,0,1,3.84-7.94A12.22,12.22,0,0,1,34.4,3.57Zm-7.85,9.18a.74.74,0,0,1,.68-.12l.31.06c-.08.3-.16.6-.23.9l-1.59-.26C26,13.15,26.28,12.94,26.55,12.75Z"/><path class="cls-17" d="M74.86,24.35a3,3,0,0,0-.58-.6h0C72.66,22,71,20.3,69.41,18.57a.22.22,0,0,0-.29,0A46.64,46.64,0,0,1,63,23.36a.21.21,0,0,0-.07.27,2.86,2.86,0,0,0,.06.77,3.69,3.69,0,0,0,.19,1c.09.18.19.2.39.26l1.15.42a4.66,4.66,0,0,1-.26.71,8.69,8.69,0,0,1-1.65,2.47,9,9,0,0,1-5.61,2.55l-.09,0h0c-.12,0-.19.17-.25.27a1.41,1.41,0,0,0-.33.67.83.83,0,0,0,0,.22,10.07,10.07,0,0,0,.2,1.64c.14,1.06.28,2.12.44,3.18.06.41,0,1.39.39,1.67a3.25,3.25,0,0,0,1.46.23c5.64.39,10.37-3.67,12.28-8.77a14.47,14.47,0,0,0,.9-3.93l2.49-.14a.19.19,0,0,0,.18-.18c0-.52,0-1,.06-1.56C74.89,24.91,75,24.57,74.86,24.35ZM64,25.54a1.44,1.44,0,0,1-.46-.19c-.14-.13-.13-.2-.17-.39a8.54,8.54,0,0,0-.19-1.2l2.07.43h0c-.19.54-.3,1.09-.45,1.64Zm-.92,4a8.92,8.92,0,0,0,1.8-2.82,5.64,5.64,0,0,0,.59-2.64.18.18,0,0,0-.11-.26l-1.74-.38A44.8,44.8,0,0,0,69.25,19c1.65,1.77,3.34,3.51,5,5.27a24.06,24.06,0,0,1-2.55-.06.18.18,0,0,0-.18.18,14.19,14.19,0,0,1-4.84,11,11.64,11.64,0,0,1-6.41,2.74c-.32,0-.64,0-1,0a2.73,2.73,0,0,1-1,0c-.35-.24-.35-1.57-.4-1.94-.19-1.33-.31-2.68-.57-4A8.78,8.78,0,0,0,63.06,29.54Zm-6,5.51c-.05-.37-.11-.73-.17-1.1s-.12-.63-.16-1a.83.83,0,0,1,0-.32l0,0a1.83,1.83,0,0,1,.24-.31,1.14,1.14,0,0,0,.11-.11c.24,2,.46,4.09.83,6.1a0,0,0,0,0,0,0c-.08.11-.13.24-.19.34l-.15.23c0-.14,0-.33-.06-.59C57.34,37.25,57.19,36.14,57,35.05ZM67.1,36.54a10.83,10.83,0,0,1-7,2.9A9.66,9.66,0,0,1,58,39.31a.92.92,0,0,1-.29-.11,1.17,1.17,0,0,1,0-.11c.06-.1.12-.2.17-.3a2,2,0,0,0,.18-.32,12.45,12.45,0,0,0,9.64-3.64,14.82,14.82,0,0,0,4-8.48l.06-.58C72.16,29.77,69.94,33.91,67.1,36.54Zm4.83-11.93a1.62,1.62,0,0,1,.44,0c.74,0,1.49,0,2.23,0,0,.21,0,.52,0,.72,0,.39,0,.78-.07,1.17-.77,0-1.55.05-2.31.12A7.36,7.36,0,0,0,71.93,24.61Z"/><path class="cls-16" d="M20.6,21.56a1.67,1.67,0,0,0,1-1.81c-.09-.6-.58-1.19-1.16-.94s-1,1.09-1,1.66S19.91,21.79,20.6,21.56Zm-1-1.72a1.92,1.92,0,0,1,.77-.91c.73-.28,1.09.65,1.07,1.26s-.68,1.65-1.43,1.24A1.39,1.39,0,0,1,19.64,19.84Z"/><path class="cls-16" d="M20.31,20.05s0,0,0-.05a.06.06,0,0,1,.09,0,.29.29,0,0,1,0,.13.24.24,0,0,0-.09.16.42.42,0,0,0,0,.16l.16.71s0,.1.07.1a.13.13,0,0,0,.07,0l.2-.16-.05-.32c0,.06-.11.09-.15.07s-.06-.09,0-.16a.39.39,0,0,0,.18-.16.19.19,0,0,0,0-.18.59.59,0,0,0-.22.14l-.06-.19.15-.12a.24.24,0,0,0,.06-.08.13.13,0,0,0,0-.06c-.07-.31-.15-.62-.25-.92,0,0-.28.28-.31.39a1.53,1.53,0,0,0,.12.54A0,0,0,0,0,20.31,20.05Z"/><path class="cls-18" d="M10.75,13.27C9.91,14.25,8.87,15,8,16a5.11,5.11,0,0,0-1.6,3.42c2.41,2.3,5.33,3.91,7.68,6.28a4,4,0,0,1,1.18-2.18q3.54-4.16,7.35-8.06A12.48,12.48,0,0,0,18,15.16a21.84,21.84,0,0,1-3.15.75A4.17,4.17,0,0,1,10.75,13.27Z"/><path class="cls-19" d="M53.74,50.44c-1.54.81-3,1.76-4.56,2.57-.77.4-1.55.8-2.33,1.18-1,.5-2.33,1.3-3.33.31,0,0-.09,0-.06,0,1.15,1.36,3.19,0,4.37-.62a43.25,43.25,0,0,0,6-3.4.05.05,0,1,0,0-.09Z"/><path class="cls-19" d="M47.32,48.28a34.65,34.65,0,0,0-3.73,1.81l-4,2c-2.66,1.35-5.35,2.66-8,4.1,0,0,0,.07,0,0,2.65-1.22,5.25-2.59,7.86-3.92l3.84-1.94a39.19,39.19,0,0,0,3.95-2.09s0,0,0,0Z"/><path class="cls-19" d="M11.79,27a74.11,74.11,0,0,0-7.5,2.64c-.34.15-1,.35-.84.84s1.06,1.11,1.43,1.41c0,0,0,0,0,0-.34-.31-1.1-.91-1.23-1.35-.2-.7,2.06-1.29,2.57-1.49,1.84-.7,3.72-1.29,5.56-2,0,0,0,0,0,0Z"/><path class="cls-20" d="M27.49,37.09c-2.8-2.42-5.38-4.68-6.39-5.64-.09-.08,0-.2.09-.21a.07.07,0,0,1,0-.06,15.79,15.79,0,0,1,5-5.72l.32-.23-.23-2.87a3.1,3.1,0,0,0-2.22.05l-5.45,1.93L18,25a7.9,7.9,0,0,1-1.73,1.54A1.82,1.82,0,0,1,13.9,26l-5,1.77L4.38,29.36c-.43.12-1.13.33-1.24.84s.45.94.78,1.24l.16.15c1,1,2,1.95,3.05,2.92l5.81,5.55,6.94,6.64L26.45,53,29,55.42Z"/><path class="cls-21" d="M35.94,42.87C31.55,39,27,35.2,22.8,31.12c0,0,0-.07.05-.05,4.53,3.7,8.83,7.74,13.19,11.63a27.64,27.64,0,0,1,6.44-6.18l-3,1.95a27,27,0,0,1,2.07-1.93l-3,1.79a10.36,10.36,0,0,1,2.33-2.2A16.55,16.55,0,0,1,38,37.49a8.84,8.84,0,0,1,1.53-1.19,2.35,2.35,0,0,1-2-.92,7.35,7.35,0,0,1-1.06-2.09,61,61,0,0,1-2.29-7.21,7.16,7.16,0,0,1-.26-2.15A2.86,2.86,0,0,1,34.7,22l-.77.42a63,63,0,0,0-5.84,3.4,23.55,23.55,0,0,0-2.91,2.35c-.91.87-1.65,1.85-2.48,2.77,0,.05-.12,0-.09-.06A17.5,17.5,0,0,1,28,25.61a54.78,54.78,0,0,1,5.24-3.07,26.89,26.89,0,0,0-9.85,6.73c-.53.57-1.63,1.53-1.6,2.43,2.65,2.35,10.71,9.23,13.74,11.93C35.63,43.37,35.78,43.12,35.94,42.87Z"/></g></g></g></svg>