<svg width="80" height="80" viewBox="0 0 80 80" fill="white" xmlns="http://www.w3.org/2000/svg">
<path fill="white" fill-rule="evenodd" clip-rule="evenodd" d="M51.2054 60.5177C50.7205 61.4554 49.8802 62.1593 48.8726 62.4718C48.4481 62.6068 48.017 62.7199 47.5809 62.8105C46.2253 63.1 44.8511 63.2937 43.4683 63.3903C43.4389 63.3923 43.4134 63.4114 43.4033 63.4391L39.3297 75.4111L37.7029 79.9511C37.6919 79.981 37.6632 80.0006 37.6314 80C34.136 79.8171 30.6836 79.1429 27.3759 77.997C27.3376 77.9832 27.3174 77.9412 27.3304 77.9026L29.4518 72.0534L32.8681 62.1722C32.874 62.1523 32.8714 62.1309 32.8609 62.113C32.8504 62.0951 32.833 62.0823 32.8127 62.0778C31.2412 61.7521 30.0114 61.4264 28.8694 61.1007L27.4605 60.6969C27.2043 60.6231 26.9459 60.5475 26.6815 60.4702C25.4285 60.1037 24.0388 59.6973 22.0856 59.2508C18.4272 58.3256 14.7213 57.6005 10.9842 57.0786L10.148 56.9678L9.85846 56.9287C9.83141 56.926 9.80499 56.9381 9.78944 56.9604C9.77389 56.9828 9.77167 57.0118 9.78363 57.0362C12.6939 63.0647 18.0644 67.4467 21.6433 70.3669C22.2697 70.878 22.8411 71.3443 23.335 71.7668C23.3931 71.8167 23.4473 71.8718 23.5 71.9256C23.5299 71.956 23.5593 71.986 23.5887 72.0143C23.5962 72.1145 23.584 72.2151 23.5529 72.3107L23.2504 73.2323L22.7656 74.7142C22.5801 75.2841 21.9457 75.3655 21.4381 75.0399C10.6296 68.422 0 59.0587 0 42.4229C0 25.2107 10.802 10.0665 29.0288 5.6535C31.0802 5.23407 33.1635 4.99002 35.2562 4.92398C35.4576 4.916 35.6565 4.97061 35.8256 5.0803C36.0325 5.20713 36.1768 5.41509 36.2232 5.6535C36.2696 5.89191 36.2139 6.13887 36.0696 6.33418C36.036 6.38122 36.0019 6.42772 35.9677 6.47434C35.919 6.54068 35.8701 6.60729 35.8223 6.67614L35.6304 6.9432L35.3375 7.34705C35.0538 7.74224 34.7144 8.22257 34.3604 8.72358C33.5213 9.91126 32.6002 11.2151 32.1425 11.7763C32.13 11.7903 32.1124 11.7985 32.0937 11.7991C32.0143 11.8038 31.9214 11.7868 31.8177 11.7679C31.7046 11.7472 31.5787 11.7242 31.443 11.7242C29.0725 11.8188 26.7364 12.3246 24.5388 13.2191C15.9102 16.9351 10.9647 23.1523 8.00716 32.177C7.99872 32.1973 8.0006 32.2205 8.01221 32.2392C8.02383 32.258 8.04375 32.2699 8.06572 32.2714L8.43663 32.3268C10.4028 32.6242 12.41 32.9442 14.4566 33.2705C14.9873 33.3551 15.5206 33.4401 16.0566 33.5253C17.1791 33.6458 18.4806 33.7663 19.5998 33.5253H19.6584C20.3412 33.2984 20.9961 32.9947 21.6105 32.6199C22.7807 31.8448 23.9031 30.9998 24.9715 30.0894C25.4465 29.6692 25.9183 29.1872 26.3315 28.7638C26.9823 28.1027 27.6883 27.4285 28.3976 26.7772L30.4669 24.8459C30.6936 24.641 30.9081 24.437 31.1225 24.2329C31.3513 24.0152 31.5801 23.7975 31.8236 23.579C31.9028 23.5047 31.9826 23.4299 32.0629 23.3545C32.7645 22.6961 33.506 22.0001 34.2476 21.3513L34.3029 21.2895L34.3777 21.2373C35.4807 20.5339 36.6976 19.8988 38.025 19.9607C38.2788 19.9737 38.5293 20.003 38.7831 20.0356C38.8433 20.0435 38.9027 20.0537 38.9625 20.0641C39.0255 20.0749 39.0889 20.0858 39.154 20.0942C39.2227 20.103 39.2942 20.1156 39.364 20.128C39.4231 20.1384 39.481 20.1486 39.5347 20.1561C39.6209 20.1681 39.7 20.1836 39.7773 20.1987C39.805 20.2041 39.8326 20.2095 39.8601 20.2147H39.9154C39.9571 20.2229 39.9988 20.2311 40.0404 20.2393C40.3782 20.3059 40.7116 20.3717 41.0477 20.4297L41.321 20.4818L42.7916 20.7423L43.3187 20.8433L43.9238 20.9703C44.8838 21.1651 45.8312 21.4174 46.761 21.7259C46.7978 21.739 46.8384 21.7202 46.8521 21.6835L47.7111 19.2507L47.8868 18.7654C48.4171 17.3031 49.9788 13.0237 50.2066 12.6198C50.4864 12.1378 49.3053 12.6198 49.3053 12.6198L36.3657 17.5343C36.3467 17.5408 36.3261 17.5408 36.3071 17.5343C35.8943 17.3575 35.6925 16.8877 35.8484 16.4661L37.9437 10.669C38.0288 10.434 38.2116 10.2474 38.4448 10.1577L39.974 9.46397L48.3911 5.67304L49.481 5.17801L60.8427 0.0550452C61.1102 -0.0456657 61.4102 -0.00659972 61.6431 0.159263L63.5757 1.54992C63.7575 1.54671 63.9314 1.62421 64.0507 1.76161C64.1669 1.95891 64.2276 2.18397 64.2264 2.41298C64.1828 2.56008 64.1284 2.70377 64.0637 2.84288L61.3828 10.7341L61.1648 11.3692L55.292 28.6205C55.2818 28.6504 55.2923 28.6835 55.318 28.702C56.0705 29.2347 56.6933 29.9305 57.14 30.7375C57.4361 31.2781 58.7343 34.1213 57.0815 36.4011C56.6822 36.9179 56.1818 37.3479 55.6108 37.6647C55.5869 37.676 55.5716 37.7001 55.5716 37.7266C55.5716 37.7531 55.5869 37.7772 55.6108 37.7885C55.9762 37.9701 56.3066 38.2148 56.5869 38.5115C56.5946 38.5207 56.6024 38.5302 56.6101 38.5397C56.6351 38.5703 56.6605 38.6014 56.6878 38.6287C57.2092 39.2653 57.5247 40.0457 57.5923 40.8661C57.7094 41.2276 58.2983 44.4812 56.0566 46.4711C55.5145 46.9847 54.8504 47.3512 54.1272 47.5361C54.1068 47.5411 54.0896 47.5548 54.0802 47.5736C54.0708 47.5925 54.0701 47.6145 54.0784 47.6338C54.4219 48.3679 54.6312 49.1577 54.6966 49.9657C54.8072 52.0793 54.0459 54.548 51.443 55.03H51.3844C51.808 55.5306 52.093 56.1336 52.2108 56.7789C52.505 58.2285 51.8646 59.3566 51.2181 60.4954L51.2054 60.5177ZM51.3876 53.8869C51.4976 53.8647 51.6062 53.8364 51.713 53.8022C53.8051 53.1606 53.8018 50.718 53.6912 49.9917C53.66 49.5242 53.5703 49.0625 53.4244 48.6174C53.3042 48.2428 53.1416 47.8833 52.9396 47.5459C52.9291 47.5289 52.913 47.5162 52.8941 47.51C51.6349 47.1941 50.379 46.9434 49.1199 46.7382C48.7359 46.6698 48.352 46.6112 47.9648 46.5525C47.8754 46.5525 47.8013 46.5387 47.7273 46.5249C47.6533 46.511 47.5793 46.4972 47.4898 46.4972H47.2556C45.7231 46.3148 44.2525 46.1357 42.6614 45.4159H42.6322C41.8092 45.4273 41.0114 45.7011 40.3546 46.1975C39.8731 46.5363 39.4875 46.9941 39.2354 47.5263L39.2028 47.5752C39.177 47.6644 39.1448 47.7536 39.1126 47.8425C39.072 47.9549 39.0316 48.0668 39.0044 48.1777V48.2363C38.8078 48.9236 38.8933 49.6609 39.2419 50.2848C39.8926 51.2977 41.129 51.9133 42.1311 52.2748C42.5319 52.3513 42.9235 52.4703 43.2992 52.6297C43.549 52.6869 43.7996 52.7301 44.044 52.7722C44.3151 52.819 44.5787 52.8644 44.8251 52.9261C44.9206 52.9609 45.0328 52.9771 45.1434 52.9931C45.24 53.007 45.3353 53.0208 45.4173 53.0466C45.7211 53.1428 46.0464 53.2205 46.3785 53.2999C46.53 53.3361 46.6829 53.3726 46.8358 53.4114C46.98 53.4438 47.1188 53.4815 47.2595 53.5197L47.3044 53.5319C47.4045 53.5572 47.5079 53.5839 47.614 53.6113C48.5047 53.8413 49.5931 54.1223 50.6426 54.0758C50.663 54.0746 50.6825 54.0666 50.6979 54.053C50.8606 53.9133 51.0108 53.7596 51.1469 53.5938C51.495 53.1686 51.792 52.7041 52.0319 52.2096C52.2677 51.6925 52.4277 51.1441 52.5069 50.5812C52.6119 50.0043 52.6316 49.415 52.5655 48.8323C52.7764 49.2068 52.9051 49.6221 52.9429 50.0503C52.9648 50.2264 52.9757 50.4038 52.9754 50.5812C52.953 51.203 52.8139 51.8151 52.5655 52.3855C52.3606 52.7743 52.1117 53.1382 51.8236 53.47C51.6912 53.6219 51.5453 53.7614 51.3876 53.8869ZM53.6912 28.9462C53.4885 28.8836 53.2805 28.84 53.0698 28.8159C53.0419 28.8057 53.0106 28.8137 52.9911 28.8361C52.9716 28.8585 52.968 28.8907 52.9819 28.9169C53.0054 29.0404 53.0336 29.1693 53.0626 29.3022C53.1139 29.5372 53.1678 29.7843 53.2032 30.034C53.4064 31.1874 53.5379 32.3523 53.5969 33.522C53.6585 34.7158 53.6477 35.9121 53.5643 37.1045C53.5623 37.1258 53.5698 37.1469 53.585 37.162C53.6001 37.1772 53.6211 37.1847 53.6424 37.1827C54.6562 37.1079 55.591 36.6075 56.216 35.8051C57.5142 33.9975 56.3917 31.6429 56.1542 31.2227C55.8323 30.6448 55.4013 30.1349 54.8853 29.7213V29.7506C55.1941 30.1661 55.4468 30.6206 55.6369 31.1022C55.8834 31.659 56.0394 32.2516 56.0989 32.8576C56.1658 33.4402 56.1471 34.0294 56.0436 34.6066C55.9598 34.3231 55.9025 34.0539 55.8468 33.7926C55.7835 33.4955 55.7223 33.2087 55.6271 32.9228C55.5138 32.3787 55.3346 31.8504 55.0935 31.3497C54.9849 31.0057 54.8455 30.6722 54.6771 30.3532C54.6366 30.2693 54.5942 30.2026 54.5499 30.1332C54.498 30.0517 54.4437 29.9664 54.3875 29.8451C54.3242 29.7085 54.2441 29.5768 54.1647 29.4462C54.1135 29.3619 54.0625 29.2781 54.0166 29.1937L53.6912 28.9462ZM53.2682 39.2475C53.1921 39.6102 53.0522 39.9564 52.855 40.2701C52.5371 40.7497 52.0809 41.1212 51.5471 41.3351C51.3374 41.4054 51.1174 41.4396 50.8963 41.4361C50.3487 41.3947 49.8125 41.258 49.3118 41.0322L48.0104 40.3809C46.9126 39.7731 45.9644 38.9274 45.2351 37.9057C45.219 37.9066 45.2032 37.9008 45.1915 37.8897C45.1799 37.8787 45.1733 37.8633 45.1732 37.8473V37.9057L43.1658 38.1467C42.894 38.163 42.6303 38.2458 42.3979 38.3877C42.3893 38.3895 42.3805 38.3895 42.3719 38.3877C41.9495 38.6354 41.5934 38.9818 41.334 39.3973C41.294 39.4545 41.259 39.5166 41.2225 39.5816C41.2174 39.5907 41.2123 39.5998 41.2071 39.609C40.9551 40.1326 40.7798 40.6898 40.6865 41.2635C40.6143 41.713 40.6754 42.1738 40.8622 42.589C41.2754 43.3739 42.1604 43.8559 43.0519 44.276C44.3888 44.8581 45.8281 45.0677 47.2364 45.2728C47.4355 45.3018 47.634 45.3307 47.8314 45.3605C47.8916 45.3605 47.951 45.3768 48.0104 45.3931C48.0698 45.4094 48.1292 45.4257 48.1893 45.4257L49.4713 45.6146C50.7402 45.823 52.0026 46.0542 53.2357 46.3799C53.254 46.3898 53.276 46.3898 53.2943 46.3799C53.6241 46.1332 53.9311 45.8575 54.2118 45.5559C54.3296 45.4143 54.4383 45.2653 54.5371 45.1098C54.7857 44.7393 54.9909 44.3416 55.1488 43.9243C55.367 43.3674 55.4859 42.7766 55.5002 42.1786V42.0581C55.5186 41.4028 55.4183 40.7496 55.2041 40.1301C55.4814 40.4469 55.6887 40.8187 55.8126 41.2211C55.8954 41.4938 55.9499 41.7743 55.9752 42.0581C56.0238 42.7735 55.923 43.4911 55.6792 44.1653C55.4342 44.8379 55.0274 45.4396 54.4949 45.9175C54.4832 45.9269 54.4717 45.9364 54.4602 45.9457C54.3689 46.0201 54.2822 46.0908 54.1955 46.1487C54.0346 46.2795 53.8574 46.389 53.6684 46.4744C53.826 46.4446 53.9815 46.4043 54.1337 46.3539C54.595 46.2012 55.0195 45.9539 55.3798 45.6276C56.9695 44.2138 56.8077 41.9931 56.7504 41.2068C56.7404 41.0692 56.7336 40.9756 56.7398 40.9378C56.7429 40.9305 56.7429 40.9223 56.7398 40.915C56.6496 40.5043 56.5017 40.1085 56.3006 39.7393C56.1947 39.5403 56.0659 39.3545 55.9167 39.1856C55.2652 38.6073 54.4254 38.2865 53.5546 38.2835C53.5218 38.2841 53.4937 38.3069 53.4862 38.3389C53.4792 38.3669 53.4698 38.4046 53.4587 38.4487C53.3924 38.7122 53.2682 39.2057 53.2682 39.2475ZM33.5285 47.598C34.5565 47.5733 35.5681 47.3348 36.4991 46.8978C37.2554 46.5359 37.9425 46.0443 38.5293 45.4452C38.5977 45.3768 38.6595 45.3117 38.7213 45.24C39.2079 44.7089 39.6265 44.1193 39.9674 43.4846C39.9774 43.464 39.9774 43.4401 39.9674 43.4195C39.8204 43.1233 39.7216 42.8056 39.6746 42.4783C39.6423 42.2824 39.627 42.0841 39.6291 41.8855C39.6645 40.9128 39.9287 39.9621 40.4002 39.1107C40.5924 38.7238 40.8601 38.3794 41.1876 38.0979C41.2897 38.0063 41.3984 37.9225 41.5129 37.8471C42.079 37.4953 42.1116 36.6583 41.9717 35.8246C41.8584 35.1879 41.7008 34.56 41.4999 33.9454C41.4682 33.9153 41.4527 33.8689 41.4373 33.8225C41.4226 33.7785 41.408 33.7345 41.3795 33.7044C41.231 33.7733 41.0711 33.8141 40.9077 33.8249C40.0516 34.0173 39.1643 34.0251 38.3049 33.8477C38.1052 33.81 37.9075 33.7621 37.7127 33.7044C36.7987 33.4407 35.9616 32.9603 35.2725 32.304C35.2477 32.2799 35.2436 32.2416 35.2628 32.2128C35.2819 32.1841 35.3188 32.1731 35.3506 32.1867C36.171 32.4821 37.0207 32.6885 37.8851 32.8023C38.1377 32.8342 38.3919 32.8516 38.6465 32.8544C38.7256 32.8593 38.8049 32.8593 38.884 32.8544C39.4298 32.8512 39.9743 32.7988 40.5108 32.6981C40.5391 32.6929 40.562 32.672 40.5697 32.6442C40.5773 32.6164 40.5683 32.5867 40.5466 32.5678C40.2472 32.295 39.9296 32.1324 39.606 31.9667C39.4196 31.8713 39.2313 31.7749 39.0434 31.6559C39.0199 31.643 38.9978 31.6274 38.9743 31.6108C38.9621 31.6021 38.9494 31.5932 38.936 31.5842C38.4382 31.1902 37.9079 30.529 37.5825 29.2621C37.5764 29.232 37.5901 29.2014 37.6166 29.1859C37.6431 29.1704 37.6765 29.1736 37.6997 29.1937C38.2039 29.7571 38.7631 30.2688 39.3688 30.7212C39.7112 30.98 40.076 31.2078 40.4587 31.4018C40.8834 31.5971 41.3449 31.6993 41.8122 31.7015C42.1036 31.6817 42.3884 31.6065 42.6517 31.48C42.6786 31.4695 42.6966 31.4438 42.6972 31.4149C42.6979 30.563 42.9223 29.7262 43.348 28.9886C43.7107 28.3418 44.2145 27.7852 44.8218 27.3601C44.7811 27.401 44.7419 27.4497 44.6999 27.5018C44.6815 27.5246 44.6627 27.5481 44.6429 27.5718C44.6771 27.5398 44.7097 27.5061 44.7405 27.4709C44.1849 28.1927 43.7719 29.014 43.5237 29.8907C43.3621 30.5064 43.3103 31.1459 43.3707 31.7796C43.3939 32.078 43.4451 32.3735 43.5237 32.6622C43.6365 33.1125 43.7745 33.5561 43.9369 33.991C44.0674 34.4615 44.226 34.9237 44.4119 35.3752C44.7142 36.2497 45.1299 37.0808 45.6483 37.8471C46.4341 38.8842 47.4932 39.6816 48.7067 40.1496C48.7329 40.157 48.7612 40.1502 48.7811 40.1315C48.8011 40.1129 48.8098 40.0852 48.8043 40.0585C48.6925 39.6463 48.6067 39.2275 48.5472 38.8046C48.4792 38.3855 48.4401 37.9622 48.4301 37.5377C48.4109 37.1131 48.4503 36.6879 48.5472 36.274C48.6213 36.062 48.7207 35.8597 48.8433 35.6715C49.2265 35.1321 49.8357 34.7984 50.4962 34.7661C50.1306 34.8725 49.8031 35.0816 49.5526 35.3686C49.2993 35.6384 49.1346 35.9794 49.0808 36.3457C49.0223 36.7256 49.0223 37.1122 49.0808 37.4921C49.0869 37.8961 49.125 38.2991 49.1947 38.6971C49.2644 39.2271 49.3611 39.7532 49.4843 40.2734C49.4898 40.3044 49.5149 40.3282 49.5461 40.332C50.229 40.462 50.9335 40.2671 51.4527 39.8044C51.4621 39.7969 51.4689 39.7867 51.4722 39.7751L51.9147 38.4724V38.1467C51.9147 37.9138 51.8995 37.6745 51.8841 37.4336C51.8686 37.1893 51.8529 36.9433 51.8529 36.7007C51.8529 35.7985 51.7943 34.8932 51.7358 33.991V33.8705C51.6154 32.0076 51.443 30.1415 51.1469 28.3339C51.0709 27.6539 50.9326 26.9824 50.7337 26.3277C50.7044 26.3603 50.6897 26.3904 50.6751 26.4206C50.6605 26.4507 50.6458 26.4808 50.6165 26.5134C50.3814 26.8821 50.0262 27.1582 49.6112 27.295C49.4236 27.3701 49.2242 27.4109 49.0223 27.4155C48.8231 27.4253 48.6235 27.4055 48.4301 27.3569C48.0267 27.3053 47.6527 27.1181 47.3694 26.826C47.7401 26.8787 48.1144 26.9005 48.4887 26.8912C48.5761 26.8912 48.6644 26.875 48.753 26.8588C48.8425 26.8425 48.9324 26.826 49.0223 26.826C49.1847 26.8164 49.3438 26.7755 49.4908 26.7055C49.8118 26.6299 50.1023 26.4584 50.3237 26.2137C50.3984 26.1764 50.4493 26.1138 50.5076 26.0421C50.5407 26.0014 50.5762 25.9578 50.6198 25.9141C50.5163 25.691 50.3754 25.4872 50.2033 25.3116C49.5526 24.5886 48.6058 24.1652 47.6004 23.8656C47.1556 23.7107 46.7027 23.5802 46.2437 23.4748C46.034 23.4244 45.8256 23.3769 45.6216 23.3304C45.2587 23.2478 44.9094 23.1682 44.5908 23.0807C43.7742 22.8625 42.9835 22.6671 42.1832 22.4977C41.6528 22.374 41.116 22.2665 40.5726 22.172C40.4759 22.1577 40.3783 22.1431 40.2801 22.1283C39.1268 21.9548 37.882 21.7676 36.7366 21.9897C35.5535 22.2191 34.7478 22.9413 33.8592 23.7378C33.8143 23.778 33.7692 23.8185 33.7238 23.8591C32.7184 24.7612 31.7716 25.6568 30.828 26.6339C29.4745 28.0115 28.1178 29.2784 26.761 30.5421C26.6829 30.6398 26.5625 30.7798 26.4845 30.8677C26.3281 31.079 26.1756 31.2917 26.0242 31.503C25.7344 31.9074 25.4485 32.3063 25.1472 32.6785C25.0877 32.7731 25.0319 32.8622 24.978 32.9483C24.8166 33.206 24.6721 33.4367 24.4965 33.7077C24.2701 34.0309 24.072 34.373 23.9043 34.7303C23.6048 35.4176 23.4254 36.1513 23.374 36.8993C23.3248 37.6863 23.3652 38.4762 23.4944 39.254C23.7666 40.7677 24.1616 42.2566 24.6754 43.7061C24.6851 43.7395 24.6706 43.7751 24.6403 43.7922C24.6101 43.8093 24.5721 43.8033 24.5485 43.7777C23.5152 42.5111 22.7353 41.057 22.2515 39.495C22.0159 38.609 21.8978 37.6957 21.9001 36.7788C21.8905 36.5364 21.9101 36.2936 21.9587 36.0558C21.9888 35.9319 22.0034 35.8079 22.018 35.684C22.0319 35.5669 22.0457 35.4499 22.0725 35.3328L22.1376 34.9713C22.1645 34.9128 22.1783 34.8543 22.1921 34.7957C22.2067 34.7338 22.2214 34.6718 22.2515 34.6098C22.3052 34.3842 22.3849 34.1656 22.489 33.9584C22.5019 33.8492 22.5422 33.745 22.6061 33.6556C22.4784 33.7352 22.3388 33.8259 22.1975 33.9178C22.015 34.0365 21.8295 34.1571 21.6626 34.2581C21.6325 34.2898 21.6016 34.3053 21.5707 34.3207C21.5414 34.3354 21.5122 34.35 21.4836 34.3786C20.8076 34.8653 20.1926 35.4317 19.6519 36.0656C18.9901 36.9538 18.639 38.0354 18.653 39.1433C18.6555 39.7293 18.7132 40.3138 18.8254 40.8889C18.8873 41.1918 18.9458 41.4914 19.0044 41.7943C19.0545 42.102 19.134 42.4041 19.2419 42.6965C18.7812 42.2188 18.402 41.6687 18.1194 41.0681C17.8364 40.4561 17.6372 39.8086 17.5272 39.1433C17.4531 38.4389 17.4949 37.727 17.6509 37.0361C17.7051 36.6768 17.8242 36.3302 18.0023 36.0135C18.1801 35.7001 18.3768 35.3977 18.5912 35.1081L18.6562 35.0495C17.727 35.0528 16.7986 34.9919 15.8777 34.8671C14.6912 34.6809 13.5143 34.5037 12.3498 34.3284C10.8862 34.108 9.44218 33.8906 8.02342 33.6621L7.62974 33.6002C7.59324 33.5939 7.55796 33.6165 7.54839 33.6523C5.54356 40.9804 6.11797 48.7758 9.1752 55.7302C9.18529 55.7547 9.20756 55.7721 9.23377 55.7758L9.6242 55.8214C10.1318 55.88 10.6458 55.9484 11.1534 56.0233C14.93 56.5453 18.6759 57.2694 22.3751 58.1924C22.458 58.2216 22.5415 58.237 22.619 58.2513C22.7058 58.2673 22.785 58.2819 22.8469 58.3129C22.6725 57.7839 22.5536 57.2381 22.4923 56.6845C22.4455 55.4159 22.7934 54.1641 23.4879 53.102C23.5065 53.0721 23.5442 53.0602 23.5766 53.074C23.609 53.0878 23.6266 53.1231 23.618 53.1573C23.4145 54.2881 23.4145 55.4462 23.618 56.577C23.781 57.3477 24.0975 58.0777 24.5485 58.7232C24.5588 58.7384 24.5736 58.7498 24.5908 58.7558C24.9209 58.8525 25.2344 58.9403 25.5334 59.0242C26.3429 59.2511 27.0468 59.4485 27.6883 59.7101L29.185 60.1302C30.3237 60.4363 31.5601 60.749 33.1544 61.1072C33.1901 61.116 33.2267 61.0963 33.239 61.0616L36.3787 51.9686C36.3903 51.942 36.3839 51.911 36.3626 51.8912C36.3414 51.8714 36.31 51.8672 36.2844 51.8807C35.6785 52.143 35.0543 52.3607 34.4168 52.532C33.5291 52.7344 32.6199 52.8263 31.7098 52.8056C30.789 52.7897 29.874 52.6573 28.9865 52.4115C29.9558 52.459 30.9275 52.4154 31.8887 52.2813C34.5795 51.9067 36.5316 50.7962 37.0164 49.2133C37.1555 48.7731 37.1812 48.3049 37.0912 47.852C37.0889 47.8314 37.0769 47.8131 37.0589 47.8028C37.0409 47.7926 37.0191 47.7915 37.0001 47.7999C35.8616 48.2396 34.6329 48.3939 33.4212 48.2493H33.2878C32.0112 48.0938 30.787 47.6482 29.7088 46.9466C30.9313 47.3967 32.2261 47.6175 33.5285 47.598ZM43.2308 59.925L44.4737 60.3516C45.5279 60.7132 46.6536 61.0779 47.5744 61.2929C47.5923 61.2993 47.6118 61.2993 47.6297 61.2929C48.0678 60.999 48.4575 60.6386 48.7848 60.2246C48.9754 59.9749 49.1524 59.7151 49.3151 59.4463C49.5098 59.1968 49.6506 58.9096 49.7283 58.6027C49.9048 57.9578 49.8424 57.2707 49.5526 56.6682C49.9855 57.1132 50.2253 57.7113 50.2196 58.3324C50.22 58.4415 50.2113 58.5505 50.1936 58.6581C50.1383 59.0183 50.0193 59.3657 49.8422 59.684C49.7966 59.7622 49.7511 59.8403 49.699 59.9185C49.5637 60.1514 49.4138 60.3755 49.25 60.5894C49.0006 60.916 48.7008 61.2008 48.3618 61.4329C48.6667 61.4321 48.9685 61.3712 49.25 61.2538H49.2695C49.7218 61.0258 50.0211 60.6024 50.3725 59.9511C50.4064 59.8888 50.4402 59.8272 50.4736 59.7661C51.0205 58.7664 51.4847 57.9179 51.3161 56.9971C51.2525 56.6776 51.1348 56.3714 50.9679 56.0917C50.7425 55.7248 50.4615 55.3952 50.135 55.1147L50.1936 55.0561C49.1307 54.9752 48.0806 54.7731 47.0636 54.4536C46.8979 54.3891 46.7323 54.3391 46.5694 54.2899L46.5398 54.281C46.0788 54.1324 45.6209 54.0483 45.1572 53.9631L45.1147 53.9553C45.0272 53.9553 44.9535 53.9399 44.8794 53.9245C44.8046 53.909 44.7295 53.8934 44.6396 53.8934C43.9889 53.7729 43.3382 53.6524 42.6875 53.4733C42.4089 53.4122 42.1349 53.3316 41.8676 53.2323C41.1022 53.0659 40.3022 53.1962 39.6291 53.597C39.2658 53.7976 38.96 54.088 38.7408 54.4405C38.3302 55.1055 38.1839 55.9005 38.3309 56.6682C38.6149 57.8195 39.5332 58.7058 40.693 58.948H40.7516C41.0476 59.0782 42.053 59.5049 43.2308 59.925Z" />
<path fill="white" d="M80 41.8855C80.013 31.34 75.946 22.0125 66.0485 15.4467C65.5506 15.1211 64.9064 15.2025 64.721 15.7724L64.2459 17.2608L63.9434 18.1825C63.8522 18.4627 63.9222 18.7705 64.1256 18.9836C69.9037 25.0968 73.1179 33.1963 73.1055 41.612C73.1055 51.8676 69.3802 59.4495 62.0432 65.4974C58.0934 68.7542 53.4765 70.8679 49.25 71.0991C47.5504 71.1903 46.0873 72.3313 45.5832 73.9586L44.3663 77.8896L44.1223 78.6386C44.0401 78.9026 44.0979 79.1904 44.2758 79.402C44.4536 79.6136 44.7269 79.7199 45.0008 79.6841C66.8228 77.3848 80 60.8955 80 41.8855Z" />
</svg>

